solid OpenSCAD_Model
  facet normal 0 -0.6 0.8
    outer loop
      vertex 193.243 -316.094 347.717
      vertex 193.343 -316.094 347.717
      vertex -33.6679 -246.275 400.081
    endloop
  endfacet
  facet normal -0.281718 -0.957841 0.0563436
    outer loop
      vertex 193.243 -316.094 347.717
      vertex -33.6679 -246.275 400.081
      vertex -143.388 -221.164 278.379
    endloop
  endfacet
  facet normal 0.964296 0 -0.264825
    outer loop
      vertex 154.82 -314.097 188.959
      vertex 141.384 -262.001 140.036
      vertex 154.82 -313.997 188.959
    endloop
  endfacet
  facet normal 0.22486 -0 0.974391
    outer loop
      vertex 193.343 -316.094 347.717
      vertex 193.343 -315.994 347.717
      vertex -33.5679 -246.275 400.081
    endloop
  endfacet
  facet normal -0.506201 -0.862416 0
    outer loop
      vertex -143.388 -221.164 278.279
      vertex -144.43 -220.552 283.565
      vertex -144.43 -220.552 283.465
    endloop
  endfacet
  facet normal -0.281718 -0.957841 0.0563436
    outer loop
      vertex -143.388 -221.164 278.379
      vertex -116.64 -225.308 341.671
      vertex -144.43 -220.552 283.565
    endloop
  endfacet
  facet normal -0.0517823 -0.998658 0
    outer loop
      vertex 193.243 -316.094 347.717
      vertex 154.72 -314.097 189.059
      vertex 154.72 -314.097 188.959
    endloop
  endfacet
  facet normal 1 0 0
    outer loop
      vertex 193.343 -315.994 347.717
      vertex 193.343 -316.094 347.617
      vertex 193.343 -315.994 347.617
    endloop
  endfacet
  facet normal 0.326999 -0.607284 -0.72407
    outer loop
      vertex 95.1 -270.689 121.707
      vertex 47.9684 -287.07 114.16
      vertex 63.3794 -274.709 110.753
    endloop
  endfacet
  facet normal 0 -0.6 0.8
    outer loop
      vertex -33.6679 -246.275 400.081
      vertex 193.343 -316.094 347.717
      vertex -33.5679 -246.275 400.081
    endloop
  endfacet
  facet normal 0.971765 0 -0.23595
    outer loop
      vertex 193.343 -316.094 347.617
      vertex 154.82 -314.097 188.959
      vertex 193.343 -315.994 347.617
    endloop
  endfacet
  facet normal -0.281718 -0.957841 0.0563436
    outer loop
      vertex 193.243 -316.094 347.717
      vertex 47.8684 -287.07 114.26
      vertex 132.918 -308.755 170.858
    endloop
  endfacet
  facet normal 0.994757 0.102265 0
    outer loop
      vertex 193.343 -315.994 347.717
      vertex 161.247 -3.78645 254.246
      vertex 161.247 -3.78645 254.346
    endloop
  endfacet
  facet normal 0.301511 0.301511 0.904534
    outer loop
      vertex 193.343 -315.994 347.717
      vertex 161.247 -3.78645 254.346
      vertex -33.5679 -246.175 400.081
    endloop
  endfacet
  facet normal 1 0 0
    outer loop
      vertex 193.343 -315.994 347.717
      vertex 193.343 -316.094 347.717
      vertex 193.343 -316.094 347.617
    endloop
  endfacet
  facet normal -0 -1 -0
    outer loop
      vertex 193.343 -316.094 347.717
      vertex 193.243 -316.094 347.717
      vertex 193.343 -316.094 347.617
    endloop
  endfacet
  facet normal -0 -0.933803 -0.357789
    outer loop
      vertex 47.9684 -287.07 114.16
      vertex 133.018 -308.755 170.758
      vertex 47.8684 -287.07 114.16
    endloop
  endfacet
  facet normal -0.281718 -0.957841 0.0563436
    outer loop
      vertex 47.8684 -287.07 114.26
      vertex 193.243 -316.094 347.717
      vertex -143.388 -221.164 278.379
    endloop
  endfacet
  facet normal -0 -0.959531 -0.281602
    outer loop
      vertex 133.018 -308.755 170.758
      vertex 154.72 -314.097 188.959
      vertex 132.918 -308.755 170.758
    endloop
  endfacet
  facet normal 0.454428 -0.545314 -0.704364
    outer loop
      vertex 154.82 -314.097 188.959
      vertex 133.018 -308.755 170.758
      vertex 119.549 -268.346 130.783
    endloop
  endfacet
  facet normal -0.237971 -0.971272 -0
    outer loop
      vertex 154.72 -314.097 189.059
      vertex 132.918 -308.755 170.858
      vertex 154.72 -314.097 188.959
    endloop
  endfacet
  facet normal 0 -0.959531 -0.281602
    outer loop
      vertex 133.018 -308.755 170.758
      vertex 154.82 -314.097 188.959
      vertex 154.72 -314.097 188.959
    endloop
  endfacet
  facet normal 0.31544 0.252352 -0.914776
    outer loop
      vertex 149.953 -47.2968 202.219
      vertex 141.384 -262.001 140.036
      vertex 95.1 -270.589 121.707
    endloop
  endfacet
  facet normal 0.964296 0 -0.264825
    outer loop
      vertex 141.384 -262.001 140.036
      vertex 154.82 -314.097 188.959
      vertex 141.384 -262.101 140.036
    endloop
  endfacet
  facet normal -0.902134 0 0.431455
    outer loop
      vertex -116.64 -225.308 341.671
      vertex -116.64 -225.208 341.671
      vertex -144.43 -220.552 283.565
    endloop
  endfacet
  facet normal -0.902134 0 0.431455
    outer loop
      vertex -103.635 -82.5511 368.862
      vertex -116.64 -225.208 341.671
      vertex -116.64 -225.308 341.671
    endloop
  endfacet
  facet normal 0.383985 0.665574 -0.639975
    outer loop
      vertex 161.247 -3.78645 254.246
      vertex 149.953 -47.2968 202.219
      vertex 115.786 27.1096 259.102
    endloop
  endfacet
  facet normal -0 0.707107 0.707107
    outer loop
      vertex -103.635 -82.5511 368.862
      vertex -103.535 -82.5511 368.862
      vertex 115.686 27.1096 259.202
    endloop
  endfacet
  facet normal -0.247068 -0.968998 0
    outer loop
      vertex 132.918 -308.755 170.858
      vertex 47.8684 -287.07 114.26
      vertex 47.8684 -287.07 114.16
    endloop
  endfacet
  facet normal -0.325794 -0.945441 -0
    outer loop
      vertex 47.8684 -287.07 114.26
      vertex -143.388 -221.164 278.379
      vertex 47.8684 -287.07 114.16
    endloop
  endfacet
  facet normal -0.237971 -0.971272 0
    outer loop
      vertex 154.72 -314.097 188.959
      vertex 132.918 -308.755 170.858
      vertex 132.918 -308.755 170.758
    endloop
  endfacet
  facet normal -0.281718 -0.957841 0.0563436
    outer loop
      vertex 154.72 -314.097 189.059
      vertex 193.243 -316.094 347.717
      vertex 132.918 -308.755 170.858
    endloop
  endfacet
  facet normal -0 -0.999921 -0.0125889
    outer loop
      vertex 154.82 -314.097 188.959
      vertex 193.343 -316.094 347.617
      vertex 154.72 -314.097 188.959
    endloop
  endfacet
  facet normal -0.0517823 -0.998658 -0
    outer loop
      vertex 193.243 -316.094 347.717
      vertex 154.72 -314.097 188.959
      vertex 193.243 -316.094 347.617
    endloop
  endfacet
  facet normal 0.971429 0.0294372 -0.235498
    outer loop
      vertex 161.247 -3.78645 254.246
      vertex 141.384 -262.001 140.036
      vertex 149.953 -47.2968 202.219
    endloop
  endfacet
  facet normal 0 0.348008 -0.937491
    outer loop
      vertex 129.13 -40.3765 196.982
      vertex 129.23 -40.3765 196.982
      vertex 95 -163.804 151.164
    endloop
  endfacet
  facet normal 0.971429 0.0294372 -0.235498
    outer loop
      vertex 141.384 -262.001 140.036
      vertex 161.247 -3.78645 254.246
      vertex 193.343 -315.994 347.617
    endloop
  endfacet
  facet normal 0.994757 0.102265 0
    outer loop
      vertex 161.247 -3.78645 254.246
      vertex 193.343 -315.994 347.717
      vertex 193.343 -315.994 347.617
    endloop
  endfacet
  facet normal 0.326999 -0.607284 -0.72407
    outer loop
      vertex 119.549 -268.346 130.783
      vertex 133.018 -308.755 170.758
      vertex 95.1 -270.689 121.707
    endloop
  endfacet
  facet normal 0.286618 0.254772 -0.923548
    outer loop
      vertex 95.1 -163.804 151.164
      vertex 95.1 -270.589 121.707
      vertex 63.3794 -274.609 110.753
    endloop
  endfacet
  facet normal 0 0.629669 -0.776864
    outer loop
      vertex 129.23 -40.3765 196.982
      vertex 129.13 -40.3765 196.982
      vertex 107.92 15.3424 242.144
    endloop
  endfacet
  facet normal -0.0565133 0 0.998402
    outer loop
      vertex -33.6679 -246.275 400.081
      vertex -33.6679 -246.175 400.081
      vertex -90.2361 -180.101 396.879
    endloop
  endfacet
  facet normal 0 0 1
    outer loop
      vertex -33.6679 -246.275 400.081
      vertex -33.5679 -246.275 400.081
      vertex -33.6679 -246.175 400.081
    endloop
  endfacet
  facet normal -0.902134 5.1758e-13 0.431455
    outer loop
      vertex -116.64 -225.208 341.671
      vertex -103.635 -82.5511 368.862
      vertex -124.271 -112.918 325.715
    endloop
  endfacet
  facet normal 0.348046 0 -0.937478
    outer loop
      vertex 95.1 -270.589 121.707
      vertex 119.549 -268.346 130.783
      vertex 95.1 -270.689 121.707
    endloop
  endfacet
  facet normal 0.326398 0 -0.945233
    outer loop
      vertex 63.3794 -274.609 110.753
      vertex 95.1 -270.689 121.707
      vertex 63.3794 -274.709 110.753
    endloop
  endfacet
  facet normal -0.215867 0 -0.976423
    outer loop
      vertex 63.2794 -274.609 110.753
      vertex 47.8684 -287.07 114.16
      vertex 47.8684 -286.97 114.16
    endloop
  endfacet
  facet normal -0.325794 -0.945441 0
    outer loop
      vertex 47.8684 -287.07 114.16
      vertex -143.388 -221.164 278.379
      vertex -143.388 -221.164 278.279
    endloop
  endfacet
  facet normal 0 -0.999921 -0.0125889
    outer loop
      vertex 154.72 -314.097 188.959
      vertex 193.343 -316.094 347.617
      vertex 193.243 -316.094 347.617
    endloop
  endfacet
  facet normal 0 -1 0
    outer loop
      vertex 193.343 -316.094 347.617
      vertex 193.243 -316.094 347.717
      vertex 193.243 -316.094 347.617
    endloop
  endfacet
  facet normal -0.651214 0 -0.758895
    outer loop
      vertex 47.8684 -287.07 114.16
      vertex -143.388 -221.164 278.279
      vertex 47.8684 -286.97 114.16
    endloop
  endfacet
  facet normal 0 1 0
    outer loop
      vertex 115.686 27.1096 259.202
      vertex 115.786 27.1096 259.102
      vertex 115.686 27.1096 259.102
    endloop
  endfacet
  facet normal 0.31544 0.252352 -0.914776
    outer loop
      vertex 129.23 -40.3765 196.982
      vertex 149.953 -47.2968 202.219
      vertex 95.1 -270.589 121.707
    endloop
  endfacet
  facet normal 0 0.821573 -0.570103
    outer loop
      vertex 115.786 27.1096 259.102
      vertex 107.82 15.3424 242.144
      vertex 115.686 27.1096 259.102
    endloop
  endfacet
  facet normal 0.390149 0 -0.920752
    outer loop
      vertex 141.384 -262.001 140.036
      vertex 119.549 -268.346 130.783
      vertex 119.549 -268.246 130.783
    endloop
  endfacet
  facet normal 0.326999 -0.607284 -0.72407
    outer loop
      vertex 133.018 -308.755 170.758
      vertex 47.9684 -287.07 114.16
      vertex 95.1 -270.689 121.707
    endloop
  endfacet
  facet normal 0.971429 0.0294372 -0.235498
    outer loop
      vertex 141.384 -262.001 140.036
      vertex 193.343 -315.994 347.617
      vertex 154.82 -313.997 188.959
    endloop
  endfacet
  facet normal 0.971765 0 -0.23595
    outer loop
      vertex 193.343 -315.994 347.617
      vertex 154.82 -314.097 188.959
      vertex 154.82 -313.997 188.959
    endloop
  endfacet
  facet normal -0.902134 0 0.431455
    outer loop
      vertex -144.43 -220.552 283.565
      vertex -116.64 -225.208 341.671
      vertex -144.43 -220.452 283.565
    endloop
  endfacet
  facet normal -0.281718 -0.957841 0.0563436
    outer loop
      vertex -143.388 -221.164 278.379
      vertex -33.6679 -246.275 400.081
      vertex -116.64 -225.308 341.671
    endloop
  endfacet
  facet normal 0 0.276307 0.961069
    outer loop
      vertex -103.535 -82.5511 368.862
      vertex -103.635 -82.5511 368.862
      vertex -90.1361 -180.001 396.879
    endloop
  endfacet
  facet normal 0.301511 0.301511 0.904534
    outer loop
      vertex 161.247 -3.78645 254.346
      vertex -103.535 -82.5511 368.862
      vertex -90.1361 -180.001 396.879
    endloop
  endfacet
  facet normal 0 1 -0
    outer loop
      vertex 115.786 27.1096 259.102
      vertex 115.686 27.1096 259.202
      vertex 115.786 27.1096 259.202
    endloop
  endfacet
  facet normal -0.503509 0.419591 -0.755263
    outer loop
      vertex 107.82 15.3424 242.144
      vertex 129.13 -40.3765 196.982
      vertex -143.388 -221.064 278.279
    endloop
  endfacet
  facet normal -0.447214 0.894427 0
    outer loop
      vertex -103.635 -82.5511 368.862
      vertex 115.686 27.1096 259.202
      vertex -103.635 -82.5511 368.762
    endloop
  endfacet
  facet normal -0.503509 0.419591 -0.755263
    outer loop
      vertex -145.135 -216.478 281.991
      vertex -124.271 -112.918 325.615
      vertex -143.388 -221.064 278.279
    endloop
  endfacet
  facet normal -0.0565133 0 0.998402
    outer loop
      vertex -90.2361 -180.101 396.879
      vertex -33.6679 -246.175 400.081
      vertex -90.2361 -180.001 396.879
    endloop
  endfacet
  facet normal -0.902134 0 0.431455
    outer loop
      vertex -103.635 -82.5511 368.862
      vertex -90.2361 -180.101 396.879
      vertex -90.2361 -180.001 396.879
    endloop
  endfacet
  facet normal -0.247068 -0.968998 -0
    outer loop
      vertex 132.918 -308.755 170.858
      vertex 47.8684 -287.07 114.16
      vertex 132.918 -308.755 170.758
    endloop
  endfacet
  facet normal 0 -0.933803 -0.357789
    outer loop
      vertex 47.8684 -287.07 114.16
      vertex 133.018 -308.755 170.758
      vertex 132.918 -308.755 170.758
    endloop
  endfacet
  facet normal 0 0.34263 -0.93947
    outer loop
      vertex 63.2794 -274.609 110.753
      vertex 95 -163.804 151.164
      vertex 95.1 -163.804 151.164
    endloop
  endfacet
  facet normal 0 0.348008 -0.937491
    outer loop
      vertex 95 -163.804 151.164
      vertex 129.23 -40.3765 196.982
      vertex 95.1 -163.804 151.164
    endloop
  endfacet
  facet normal 0.390149 0 -0.920752
    outer loop
      vertex 141.384 -262.001 140.036
      vertex 141.384 -262.101 140.036
      vertex 119.549 -268.346 130.783
    endloop
  endfacet
  facet normal 0.454428 -0.545314 -0.704364
    outer loop
      vertex 141.384 -262.101 140.036
      vertex 154.82 -314.097 188.959
      vertex 119.549 -268.346 130.783
    endloop
  endfacet
  facet normal -0.902134 0 0.431455
    outer loop
      vertex -103.635 -82.5511 368.862
      vertex -116.64 -225.308 341.671
      vertex -103.635 -82.6511 368.862
    endloop
  endfacet
  facet normal -0.584761 -0.467809 0.662729
    outer loop
      vertex -116.64 -225.308 341.671
      vertex -33.6679 -246.275 400.081
      vertex -90.2361 -180.101 396.879
    endloop
  endfacet
  facet normal -0 0 1
    outer loop
      vertex -33.6679 -246.175 400.081
      vertex -33.5679 -246.275 400.081
      vertex -33.5679 -246.175 400.081
    endloop
  endfacet
  facet normal 0.22486 -0 0.974391
    outer loop
      vertex -33.5679 -246.275 400.081
      vertex 193.343 -315.994 347.717
      vertex -33.5679 -246.175 400.081
    endloop
  endfacet
  facet normal 0.56209 0.827076 0
    outer loop
      vertex 161.247 -3.78645 254.346
      vertex 115.786 27.1096 259.102
      vertex 115.786 27.1096 259.202
    endloop
  endfacet
  facet normal 0.56209 0.827076 0
    outer loop
      vertex 161.247 -3.78645 254.346
      vertex 161.247 -3.78645 254.246
      vertex 115.786 27.1096 259.102
    endloop
  endfacet
  facet normal -0.827105 0.562048 0
    outer loop
      vertex -103.635 -82.5511 368.862
      vertex -124.271 -112.918 325.615
      vertex -124.271 -112.918 325.715
    endloop
  endfacet
  facet normal -0.506201 -0.862416 0
    outer loop
      vertex -143.388 -221.164 278.279
      vertex -143.388 -221.164 278.379
      vertex -144.43 -220.552 283.565
    endloop
  endfacet
  facet normal -0.503509 0.419591 -0.755263
    outer loop
      vertex 129.13 -40.3765 196.982
      vertex 95 -163.804 151.164
      vertex 47.8684 -286.97 114.16
    endloop
  endfacet
  facet normal -0.503509 0.419591 -0.755263
    outer loop
      vertex 95 -163.804 151.164
      vertex 63.2794 -274.609 110.753
      vertex 47.8684 -286.97 114.16
    endloop
  endfacet
  facet normal -0.503509 0.419591 -0.755263
    outer loop
      vertex -124.271 -112.918 325.615
      vertex 107.82 15.3424 242.144
      vertex -143.388 -221.064 278.279
    endloop
  endfacet
  facet normal -0.980303 0.197497 0
    outer loop
      vertex -124.271 -112.918 325.615
      vertex -145.135 -216.478 281.991
      vertex -124.271 -112.918 325.715
    endloop
  endfacet
  facet normal 0.31544 0.252352 -0.914776
    outer loop
      vertex 129.23 -40.3765 196.982
      vertex 95.1 -270.589 121.707
      vertex 95.1 -163.804 151.164
    endloop
  endfacet
  facet normal 0 0.34263 -0.93947
    outer loop
      vertex 63.2794 -274.609 110.753
      vertex 95.1 -163.804 151.164
      vertex 63.3794 -274.609 110.753
    endloop
  endfacet
  facet normal 0 0 -1
    outer loop
      vertex 63.2794 -274.609 110.753
      vertex 63.3794 -274.609 110.753
      vertex 63.3794 -274.709 110.753
    endloop
  endfacet
  facet normal 0.326398 0 -0.945233
    outer loop
      vertex 95.1 -270.589 121.707
      vertex 95.1 -270.689 121.707
      vertex 63.3794 -274.609 110.753
    endloop
  endfacet
  facet normal 0.348046 0 -0.937478
    outer loop
      vertex 119.549 -268.346 130.783
      vertex 95.1 -270.589 121.707
      vertex 119.549 -268.246 130.783
    endloop
  endfacet
  facet normal 0.31544 0.252352 -0.914776
    outer loop
      vertex 95.1 -270.589 121.707
      vertex 141.384 -262.001 140.036
      vertex 119.549 -268.246 130.783
    endloop
  endfacet
  facet normal -0.902134 -7.81393e-13 0.431455
    outer loop
      vertex -116.64 -225.308 341.671
      vertex -90.2361 -180.101 396.879
      vertex -103.635 -82.6511 368.862
    endloop
  endfacet
  facet normal -0.902134 0 0.431455
    outer loop
      vertex -90.2361 -180.101 396.879
      vertex -103.635 -82.5511 368.862
      vertex -103.635 -82.6511 368.862
    endloop
  endfacet
  facet normal -0 0.0483306 0.998831
    outer loop
      vertex -33.6679 -246.175 400.081
      vertex -33.5679 -246.175 400.081
      vertex -90.1361 -180.001 396.879
    endloop
  endfacet
  facet normal 0.301511 0.301511 0.904534
    outer loop
      vertex -33.5679 -246.175 400.081
      vertex 161.247 -3.78645 254.346
      vertex -90.1361 -180.001 396.879
    endloop
  endfacet
  facet normal 0.383985 0.665574 -0.639975
    outer loop
      vertex 115.786 27.1096 259.102
      vertex 149.953 -47.2968 202.219
      vertex 107.92 15.3424 242.144
    endloop
  endfacet
  facet normal 0.383985 0.665574 -0.639975
    outer loop
      vertex 149.953 -47.2968 202.219
      vertex 129.23 -40.3765 196.982
      vertex 107.92 15.3424 242.144
    endloop
  endfacet
  facet normal -0 0.707107 0.707107
    outer loop
      vertex 115.686 27.1096 259.202
      vertex -103.535 -82.5511 368.862
      vertex 115.786 27.1096 259.202
    endloop
  endfacet
  facet normal 0.301511 0.301511 0.904534
    outer loop
      vertex -103.535 -82.5511 368.862
      vertex 161.247 -3.78645 254.346
      vertex 115.786 27.1096 259.202
    endloop
  endfacet
  facet normal -1 0 0
    outer loop
      vertex -145.135 -216.478 281.991
      vertex -145.135 -216.578 281.991
      vertex -145.135 -216.478 282.091
    endloop
  endfacet
  facet normal -0.904819 0 -0.425797
    outer loop
      vertex -143.388 -221.164 278.279
      vertex -145.135 -216.478 281.991
      vertex -143.388 -221.064 278.279
    endloop
  endfacet
  facet normal -0.541275 0.787309 -0.295241
    outer loop
      vertex 107.82 15.3424 242.144
      vertex -124.271 -112.918 325.615
      vertex 115.686 27.1096 259.102
    endloop
  endfacet
  facet normal -0.827105 0.562048 0
    outer loop
      vertex -124.271 -112.918 325.615
      vertex -103.635 -82.5511 368.862
      vertex -103.635 -82.5511 368.762
    endloop
  endfacet
  facet normal 0 0.0483306 0.998831
    outer loop
      vertex -33.6679 -246.175 400.081
      vertex -90.1361 -180.001 396.879
      vertex -90.2361 -180.001 396.879
    endloop
  endfacet
  facet normal 0 0.276307 0.961069
    outer loop
      vertex -90.1361 -180.001 396.879
      vertex -103.635 -82.5511 368.862
      vertex -90.2361 -180.001 396.879
    endloop
  endfacet
  facet normal 0 0.821573 -0.570103
    outer loop
      vertex 115.786 27.1096 259.102
      vertex 107.92 15.3424 242.144
      vertex 107.82 15.3424 242.144
    endloop
  endfacet
  facet normal 0 0.629669 -0.776864
    outer loop
      vertex 107.92 15.3424 242.144
      vertex 129.13 -40.3765 196.982
      vertex 107.82 15.3424 242.144
    endloop
  endfacet
  facet normal -0.902134 0 0.431455
    outer loop
      vertex -144.43 -220.552 283.565
      vertex -145.135 -216.478 282.091
      vertex -145.135 -216.578 282.091
    endloop
  endfacet
  facet normal -0.902134 2.73864e-14 0.431455
    outer loop
      vertex -144.43 -220.452 283.565
      vertex -116.64 -225.208 341.671
      vertex -124.271 -112.918 325.715
    endloop
  endfacet
  facet normal -0.902134 0 0.431455
    outer loop
      vertex -144.43 -220.552 283.565
      vertex -144.43 -220.452 283.565
      vertex -145.135 -216.478 282.091
    endloop
  endfacet
  facet normal -0.904819 -0 -0.425797
    outer loop
      vertex -145.135 -216.478 281.991
      vertex -143.388 -221.164 278.279
      vertex -145.135 -216.578 281.991
    endloop
  endfacet
  facet normal -0.902134 3.46071e-11 0.431455
    outer loop
      vertex -144.43 -220.452 283.565
      vertex -124.271 -112.918 325.715
      vertex -145.135 -216.478 282.091
    endloop
  endfacet
  facet normal -0.980303 0.197497 0
    outer loop
      vertex -124.271 -112.918 325.715
      vertex -145.135 -216.478 281.991
      vertex -145.135 -216.478 282.091
    endloop
  endfacet
  facet normal -0.503509 0.419591 -0.755263
    outer loop
      vertex 129.13 -40.3765 196.982
      vertex 47.8684 -286.97 114.16
      vertex -143.388 -221.064 278.279
    endloop
  endfacet
  facet normal -0.651214 0 -0.758895
    outer loop
      vertex 47.8684 -286.97 114.16
      vertex -143.388 -221.164 278.279
      vertex -143.388 -221.064 278.279
    endloop
  endfacet
  facet normal -0 -0.265731 -0.964047
    outer loop
      vertex 47.9684 -287.07 114.16
      vertex 47.8684 -287.07 114.16
      vertex 63.3794 -274.709 110.753
    endloop
  endfacet
  facet normal 0 0 -1
    outer loop
      vertex 63.2794 -274.609 110.753
      vertex 63.3794 -274.709 110.753
      vertex 63.2794 -274.709 110.753
    endloop
  endfacet
  facet normal -0.541275 0.787309 -0.295241
    outer loop
      vertex -124.271 -112.918 325.615
      vertex -103.635 -82.5511 368.762
      vertex 115.686 27.1096 259.102
    endloop
  endfacet
  facet normal -0.447214 0.894427 0
    outer loop
      vertex -103.635 -82.5511 368.762
      vertex 115.686 27.1096 259.202
      vertex 115.686 27.1096 259.102
    endloop
  endfacet
  facet normal -0.984623 -0.174691 -0
    outer loop
      vertex -144.43 -220.552 283.565
      vertex -145.135 -216.578 281.991
      vertex -144.43 -220.552 283.465
    endloop
  endfacet
  facet normal -0.95871 -0.231413 -0.165295
    outer loop
      vertex -145.135 -216.578 281.991
      vertex -143.388 -221.164 278.279
      vertex -144.43 -220.552 283.465
    endloop
  endfacet
  facet normal -1 -0 0
    outer loop
      vertex -145.135 -216.478 282.091
      vertex -145.135 -216.578 281.991
      vertex -145.135 -216.578 282.091
    endloop
  endfacet
  facet normal -0.984623 -0.174691 0
    outer loop
      vertex -145.135 -216.578 281.991
      vertex -144.43 -220.552 283.565
      vertex -145.135 -216.578 282.091
    endloop
  endfacet
  facet normal -0 -0.265731 -0.964047
    outer loop
      vertex 63.3794 -274.709 110.753
      vertex 47.8684 -287.07 114.16
      vertex 63.2794 -274.709 110.753
    endloop
  endfacet
  facet normal -0.215867 0 -0.976423
    outer loop
      vertex 47.8684 -287.07 114.16
      vertex 63.2794 -274.609 110.753
      vertex 63.2794 -274.709 110.753
    endloop
  endfacet
endsolid OpenSCAD_Model
