solid OpenSCAD_Model
  facet normal 0 -0.101762 0.994809
    outer loop
      vertex 175.866 272.72 85.6428
      vertex 175.966 272.72 85.6428
      vertex 175.065 297.948 88.2235
    endloop
  endfacet
  facet normal -0.266123 -0.106449 0.958043
    outer loop
      vertex 175.866 272.72 85.6428
      vertex 175.065 297.948 88.2235
      vertex -3.82291 181.634 25.6085
    endloop
  endfacet
  facet normal 0.371391 -0.928477 0
    outer loop
      vertex 49.0701 160.272 -107.237
      vertex 184.234 214.338 -107.237
      vertex 49.0701 160.272 -107.137
    endloop
  endfacet
  facet normal 0 1 -0
    outer loop
      vertex 208.731 345.1 24.6522
      vertex 86.9898 345.1 68.9583
      vertex 208.831 345.1 24.6522
    endloop
  endfacet
  facet normal 0.248069 -0.620174 -0.744208
    outer loop
      vertex 49.0701 160.272 -107.237
      vertex 49.0085 345 -261.197
      vertex 184.234 214.338 -107.237
    endloop
  endfacet
  facet normal 0 1 -0
    outer loop
      vertex 175.22 345.1 -219.127
      vertex 48.9085 345.1 -261.197
      vertex 208.731 345.1 24.6522
    endloop
  endfacet
  facet normal 0.248069 -0.620174 -0.744208
    outer loop
      vertex 49.0085 345 -261.197
      vertex 205.048 232.47 -115.409
      vertex 184.234 214.338 -107.237
    endloop
  endfacet
  facet normal 0.961048 0 -0.27638
    outer loop
      vertex 175.22 345.1 -219.127
      vertex 205.048 232.47 -115.409
      vertex 175.22 345 -219.127
    endloop
  endfacet
  facet normal 0 1 0
    outer loop
      vertex 208.731 345.1 24.6522
      vertex 48.9085 345.1 -261.197
      vertex -15.56 345.1 40.5
    endloop
  endfacet
  facet normal 0.356009 -0.890024 0.284808
    outer loop
      vertex 210.385 235.553 -73.5294
      vertex -3.72291 181.634 25.6085
      vertex 49.0701 160.272 -107.137
    endloop
  endfacet
  facet normal 0.356009 -0.890024 0.284808
    outer loop
      vertex 175.966 272.72 85.6428
      vertex 210.385 235.553 -73.5294
      vertex 221.01 278.052 45.9987
    endloop
  endfacet
  facet normal 0 -0.101762 0.994809
    outer loop
      vertex 175.065 297.948 88.2235
      vertex 175.966 272.72 85.6428
      vertex 175.165 297.948 88.2235
    endloop
  endfacet
  facet normal 0 1 0
    outer loop
      vertex 48.9085 345.1 -261.197
      vertex 175.22 345.1 -219.127
      vertex 49.0085 345.1 -261.197
    endloop
  endfacet
  facet normal -0.266123 -0.106449 0.958043
    outer loop
      vertex 175.065 297.948 88.2235
      vertex -42.094 277.311 25.6085
      vertex -3.82291 181.634 25.6085
    endloop
  endfacet
  facet normal -0.12262 0 -0.992454
    outer loop
      vertex 48.9085 345.1 -261.197
      vertex 29.8023 334.525 -258.837
      vertex 29.8023 334.625 -258.837
    endloop
  endfacet
  facet normal 0 1 0
    outer loop
      vertex 86.9898 345.1 68.9583
      vertex -15.56 345.1 40.5
      vertex 86.8898 345.1 68.9583
    endloop
  endfacet
  facet normal 0 -0.550313 0.834958
    outer loop
      vertex 175.966 272.72 85.6428
      vertex -3.82291 181.634 25.6085
      vertex -3.72291 181.634 25.6085
    endloop
  endfacet
  facet normal 0 -0.550313 0.834958
    outer loop
      vertex 175.966 272.72 85.6428
      vertex 175.866 272.72 85.6428
      vertex -3.82291 181.634 25.6085
    endloop
  endfacet
  facet normal -0.999973 0.0074072 0
    outer loop
      vertex -42.094 277.411 25.6085
      vertex -41.5926 345.1 -57.2222
      vertex -42.094 277.411 25.5085
    endloop
  endfacet
  facet normal -0.886969 -0.354787 -0.295656
    outer loop
      vertex 29.8023 334.525 -258.837
      vertex 48.9701 160.272 -107.237
      vertex 23.4946 345 -252.484
    endloop
  endfacet
  facet normal 0.981501 0.135379 -0.135379
    outer loop
      vertex 175.22 345.1 -219.127
      vertex 208.831 345.1 24.5522
      vertex 205.048 232.57 -115.409
    endloop
  endfacet
  facet normal 0.993591 0.113037 0
    outer loop
      vertex 221.01 278.152 45.9987
      vertex 216.62 316.739 52.6592
      vertex 216.62 316.739 52.7592
    endloop
  endfacet
  facet normal 0 1 0
    outer loop
      vertex 208.731 345.1 24.6522
      vertex -15.56 345.1 40.5
      vertex 86.9898 345.1 68.9583
    endloop
  endfacet
  facet normal 0.838692 -0 0.544605
    outer loop
      vertex 216.62 316.639 52.7592
      vertex 221.01 278.152 45.9987
      vertex 216.62 316.739 52.7592
    endloop
  endfacet
  facet normal 0.356009 -0.890024 0.284808
    outer loop
      vertex 210.385 235.553 -73.5294
      vertex 49.0701 160.272 -107.137
      vertex 184.234 214.338 -107.137
    endloop
  endfacet
  facet normal 0.356009 -0.890024 0.284808
    outer loop
      vertex 210.385 235.553 -73.5294
      vertex 175.966 272.72 85.6428
      vertex -3.72291 181.634 25.6085
    endloop
  endfacet
  facet normal 0 -0.656365 -0.754443
    outer loop
      vertex 49.0701 160.272 -107.237
      vertex 29.8023 334.525 -258.837
      vertex 29.9023 334.525 -258.837
    endloop
  endfacet
  facet normal 0 0 -1
    outer loop
      vertex 48.9085 345.1 -261.197
      vertex 49.0085 345 -261.197
      vertex 48.9085 345 -261.197
    endloop
  endfacet
  facet normal -0.948683 -0 -0.316228
    outer loop
      vertex -41.5926 345.1 -57.2222
      vertex 23.4946 345.1 -252.484
      vertex -41.5926 345 -57.2222
    endloop
  endfacet
  facet normal 0 -0.656365 -0.754443
    outer loop
      vertex 29.8023 334.525 -258.837
      vertex 49.0701 160.272 -107.237
      vertex 48.9701 160.272 -107.237
    endloop
  endfacet
  facet normal 0.970143 -0.242536 0
    outer loop
      vertex 221.01 278.052 45.8987
      vertex 210.385 235.553 -73.5294
      vertex 210.385 235.553 -73.6294
    endloop
  endfacet
  facet normal 0 -0.987299 0.158876
    outer loop
      vertex -3.72291 181.634 25.6085
      vertex -3.82291 181.634 25.6085
      vertex 49.0701 160.272 -107.137
    endloop
  endfacet
  facet normal 0.964297 0.264822 -0
    outer loop
      vertex 216.62 316.739 52.6592
      vertex 208.831 345.1 24.6522
      vertex 216.62 316.739 52.7592
    endloop
  endfacet
  facet normal 0.981501 0.135379 -0.135379
    outer loop
      vertex 208.831 345.1 24.5522
      vertex 216.62 316.739 52.6592
      vertex 221.01 278.152 45.8987
    endloop
  endfacet
  facet normal -0.489416 0 0.87205
    outer loop
      vertex -42.094 277.311 25.6085
      vertex -15.56 345.1 40.5
      vertex -42.094 277.411 25.6085
    endloop
  endfacet
  facet normal 0 1 0
    outer loop
      vertex -15.56 345.1 40.5
      vertex 48.9085 345.1 -261.197
      vertex -41.5926 345.1 -57.2222
    endloop
  endfacet
  facet normal -0.489416 0 0.87205
    outer loop
      vertex -15.56 345.1 40.5
      vertex -42.094 277.311 25.6085
      vertex -15.56 345 40.5
    endloop
  endfacet
  facet normal -0.266123 -0.106449 0.958043
    outer loop
      vertex -42.094 277.311 25.6085
      vertex 175.065 297.948 88.2235
      vertex -15.56 345 40.5
    endloop
  endfacet
  facet normal 0 0 1
    outer loop
      vertex 175.065 297.948 88.2235
      vertex 175.165 297.948 88.2235
      vertex 175.065 298.048 88.2235
    endloop
  endfacet
  facet normal 0.663348 -0.055279 0.746266
    outer loop
      vertex 175.966 272.72 85.6428
      vertex 221.01 278.052 45.9987
      vertex 216.62 316.639 52.7592
    endloop
  endfacet
  facet normal -0.375083 -0.926991 0
    outer loop
      vertex -3.82291 181.634 25.6085
      vertex 48.9701 160.272 -107.237
      vertex 48.9701 160.272 -107.137
    endloop
  endfacet
  facet normal 0 -1 0
    outer loop
      vertex 48.9701 160.272 -107.237
      vertex 49.0701 160.272 -107.237
      vertex 49.0701 160.272 -107.137
    endloop
  endfacet
  facet normal 0.316228 0 -0.948683
    outer loop
      vertex 175.22 345.1 -219.127
      vertex 49.0085 345 -261.197
      vertex 49.0085 345.1 -261.197
    endloop
  endfacet
  facet normal 0 0 -1
    outer loop
      vertex 49.0085 345 -261.197
      vertex 48.9085 345.1 -261.197
      vertex 49.0085 345.1 -261.197
    endloop
  endfacet
  facet normal 0.248069 -0.620174 -0.744208
    outer loop
      vertex 205.048 232.47 -115.409
      vertex 49.0085 345 -261.197
      vertex 175.22 345 -219.127
    endloop
  endfacet
  facet normal 0.316228 0 -0.948683
    outer loop
      vertex 49.0085 345 -261.197
      vertex 175.22 345.1 -219.127
      vertex 175.22 345 -219.127
    endloop
  endfacet
  facet normal 0 -0.219839 -0.975536
    outer loop
      vertex 29.8023 334.525 -258.837
      vertex 49.0085 345 -261.197
      vertex 29.9023 334.525 -258.837
    endloop
  endfacet
  facet normal 0.248069 -0.620174 -0.744208
    outer loop
      vertex 49.0085 345 -261.197
      vertex 49.0701 160.272 -107.237
      vertex 29.9023 334.525 -258.837
    endloop
  endfacet
  facet normal -0 -0.219839 -0.975536
    outer loop
      vertex 49.0085 345 -261.197
      vertex 29.8023 334.525 -258.837
      vertex 48.9085 345 -261.197
    endloop
  endfacet
  facet normal -0.12262 0 -0.992454
    outer loop
      vertex 29.8023 334.525 -258.837
      vertex 48.9085 345.1 -261.197
      vertex 48.9085 345 -261.197
    endloop
  endfacet
  facet normal -0.375083 -0.926991 0
    outer loop
      vertex 48.9701 160.272 -107.237
      vertex -3.82291 181.634 25.6085
      vertex -3.82291 181.634 25.5085
    endloop
  endfacet
  facet normal -0.928477 -0.371391 -0
    outer loop
      vertex -3.82291 181.634 25.6085
      vertex -42.094 277.311 25.6085
      vertex -3.82291 181.634 25.5085
    endloop
  endfacet
  facet normal 0.650068 -0 0.759876
    outer loop
      vertex 175.165 297.948 88.2235
      vertex 216.62 316.639 52.7592
      vertex 175.165 298.048 88.2235
    endloop
  endfacet
  facet normal 0.650068 0 0.759876
    outer loop
      vertex 175.165 298.048 88.2235
      vertex 216.62 316.639 52.7592
      vertex 216.62 316.739 52.7592
    endloop
  endfacet
  facet normal 0.996073 0 -0.0885398
    outer loop
      vertex 221.01 278.152 45.8987
      vertex 221.01 278.052 45.8987
      vertex 210.385 235.653 -73.6294
    endloop
  endfacet
  facet normal 0 1 0
    outer loop
      vertex 175.22 345.1 -219.127
      vertex 208.731 345.1 24.6522
      vertex 208.831 345.1 24.5522
    endloop
  endfacet
  facet normal 0.838692 0 0.544605
    outer loop
      vertex 216.62 316.639 52.7592
      vertex 221.01 278.052 45.9987
      vertex 221.01 278.152 45.9987
    endloop
  endfacet
  facet normal 0.23862 0.71586 0.656205
    outer loop
      vertex 208.831 345.1 24.6522
      vertex 86.9898 345.1 68.9583
      vertex 175.165 298.048 88.2235
    endloop
  endfacet
  facet normal -0.886969 -0.354787 -0.295656
    outer loop
      vertex 48.9701 160.272 -107.237
      vertex -3.82291 181.634 25.5085
      vertex 23.4946 345 -252.484
    endloop
  endfacet
  facet normal 0 1 0
    outer loop
      vertex -41.5926 345.1 -57.2222
      vertex 48.9085 345.1 -261.197
      vertex 23.4946 345.1 -252.484
    endloop
  endfacet
  facet normal 0 1 0
    outer loop
      vertex -15.56 345.1 40.5
      vertex -41.5926 345.1 -57.2222
      vertex -41.5926 345.1 -57.1222
    endloop
  endfacet
  facet normal -1 0 0
    outer loop
      vertex -42.094 277.311 25.6085
      vertex -42.094 277.411 25.6085
      vertex -42.094 277.411 25.5085
    endloop
  endfacet
  facet normal -0.267644 0 0.963518
    outer loop
      vertex -15.56 345.1 40.5
      vertex -15.56 345 40.5
      vertex 86.8898 345.1 68.9583
    endloop
  endfacet
  facet normal -0.213452 0 0.976954
    outer loop
      vertex 175.065 297.948 88.2235
      vertex 86.8898 345.1 68.9583
      vertex 86.8898 345 68.9583
    endloop
  endfacet
  facet normal 0 0.378917 0.925431
    outer loop
      vertex 86.9898 345.1 68.9583
      vertex 86.8898 345.1 68.9583
      vertex 175.065 298.048 88.2235
    endloop
  endfacet
  facet normal -0.213452 0 0.976954
    outer loop
      vertex 86.8898 345.1 68.9583
      vertex 175.065 297.948 88.2235
      vertex 175.065 298.048 88.2235
    endloop
  endfacet
  facet normal 0.371391 -0.928477 0
    outer loop
      vertex 49.0701 160.272 -107.137
      vertex 184.234 214.338 -107.237
      vertex 184.234 214.338 -107.137
    endloop
  endfacet
  facet normal 0.630005 -0.776591 0
    outer loop
      vertex 184.234 214.338 -107.237
      vertex 210.385 235.553 -73.5294
      vertex 184.234 214.338 -107.137
    endloop
  endfacet
  facet normal 0 -1 0
    outer loop
      vertex 48.9701 160.272 -107.237
      vertex 49.0701 160.272 -107.137
      vertex 48.9701 160.272 -107.137
    endloop
  endfacet
  facet normal 0 -0.987299 0.158876
    outer loop
      vertex 49.0701 160.272 -107.137
      vertex -3.82291 181.634 25.6085
      vertex 48.9701 160.272 -107.137
    endloop
  endfacet
  facet normal -0.886969 -0.354787 -0.295656
    outer loop
      vertex -41.5926 345 -57.2222
      vertex 23.4946 345 -252.484
      vertex -42.094 277.311 25.5085
    endloop
  endfacet
  facet normal -0.999982 -0 -0.00606049
    outer loop
      vertex -42.094 277.411 25.5085
      vertex -41.5926 345 -57.2222
      vertex -42.094 277.311 25.5085
    endloop
  endfacet
  facet normal 0.991938 0 -0.126723
    outer loop
      vertex 205.048 232.47 -115.409
      vertex 205.048 232.57 -115.409
      vertex 210.385 235.653 -73.6294
    endloop
  endfacet
  facet normal 0.981501 0.135379 -0.135379
    outer loop
      vertex 208.831 345.1 24.5522
      vertex 221.01 278.152 45.8987
      vertex 205.048 232.57 -115.409
    endloop
  endfacet
  facet normal 0.964297 0.264822 0
    outer loop
      vertex 216.62 316.739 52.6592
      vertex 208.831 345.1 24.5522
      vertex 208.831 345.1 24.6522
    endloop
  endfacet
  facet normal 0 1 -0
    outer loop
      vertex 208.831 345.1 24.5522
      vertex 208.731 345.1 24.6522
      vertex 208.831 345.1 24.6522
    endloop
  endfacet
  facet normal 0.23862 0.71586 0.656205
    outer loop
      vertex 208.831 345.1 24.6522
      vertex 175.165 298.048 88.2235
      vertex 216.62 316.739 52.7592
    endloop
  endfacet
  facet normal 0.663348 -0.055279 0.746266
    outer loop
      vertex 175.165 297.948 88.2235
      vertex 175.966 272.72 85.6428
      vertex 216.62 316.639 52.7592
    endloop
  endfacet
  facet normal -0.709619 0 -0.704586
    outer loop
      vertex 29.8023 334.525 -258.837
      vertex 23.4946 345.1 -252.484
      vertex 29.8023 334.625 -258.837
    endloop
  endfacet
  facet normal -0.303336 0.353892 -0.88473
    outer loop
      vertex 23.4946 345.1 -252.484
      vertex 48.9085 345.1 -261.197
      vertex 29.8023 334.625 -258.837
    endloop
  endfacet
  facet normal -0.999973 0.0074072 0
    outer loop
      vertex -41.5926 345.1 -57.2222
      vertex -42.094 277.411 25.6085
      vertex -41.5926 345.1 -57.1222
    endloop
  endfacet
  facet normal -0.919709 0.30657 0.245256
    outer loop
      vertex -42.094 277.411 25.6085
      vertex -15.56 345.1 40.5
      vertex -41.5926 345.1 -57.1222
    endloop
  endfacet
  facet normal -0.999982 -0 -0.00606049
    outer loop
      vertex -41.5926 345.1 -57.2222
      vertex -41.5926 345 -57.2222
      vertex -42.094 277.411 25.5085
    endloop
  endfacet
  facet normal -1 0 0
    outer loop
      vertex -42.094 277.311 25.6085
      vertex -42.094 277.411 25.5085
      vertex -42.094 277.311 25.5085
    endloop
  endfacet
  facet normal -0.267644 0 0.963518
    outer loop
      vertex 86.8898 345.1 68.9583
      vertex -15.56 345 40.5
      vertex 86.8898 345 68.9583
    endloop
  endfacet
  facet normal -0.266123 -0.106449 0.958043
    outer loop
      vertex -15.56 345 40.5
      vertex 175.065 297.948 88.2235
      vertex 86.8898 345 68.9583
    endloop
  endfacet
  facet normal 0 0.378917 0.925431
    outer loop
      vertex 86.9898 345.1 68.9583
      vertex 175.065 298.048 88.2235
      vertex 175.165 298.048 88.2235
    endloop
  endfacet
  facet normal -0 0 1
    outer loop
      vertex 175.065 298.048 88.2235
      vertex 175.165 297.948 88.2235
      vertex 175.165 298.048 88.2235
    endloop
  endfacet
  facet normal -0.948683 0 -0.316228
    outer loop
      vertex -41.5926 345 -57.2222
      vertex 23.4946 345.1 -252.484
      vertex 23.4946 345 -252.484
    endloop
  endfacet
  facet normal -0.709619 -0 -0.704586
    outer loop
      vertex 23.4946 345.1 -252.484
      vertex 29.8023 334.525 -258.837
      vertex 23.4946 345 -252.484
    endloop
  endfacet
  facet normal 0.981501 0.135379 -0.135379
    outer loop
      vertex 205.048 232.57 -115.409
      vertex 221.01 278.152 45.8987
      vertex 210.385 235.653 -73.6294
    endloop
  endfacet
  facet normal 0.961048 0 -0.27638
    outer loop
      vertex 205.048 232.47 -115.409
      vertex 175.22 345.1 -219.127
      vertex 205.048 232.57 -115.409
    endloop
  endfacet
  facet normal 1 -0 0
    outer loop
      vertex 221.01 278.052 45.9987
      vertex 221.01 278.152 45.8987
      vertex 221.01 278.152 45.9987
    endloop
  endfacet
  facet normal 0.993591 0.113037 -0
    outer loop
      vertex 221.01 278.152 45.8987
      vertex 216.62 316.739 52.6592
      vertex 221.01 278.152 45.9987
    endloop
  endfacet
  facet normal 1 0 0
    outer loop
      vertex 221.01 278.152 45.8987
      vertex 221.01 278.052 45.9987
      vertex 221.01 278.052 45.8987
    endloop
  endfacet
  facet normal 0.970143 -0.242536 0
    outer loop
      vertex 221.01 278.052 45.9987
      vertex 210.385 235.553 -73.5294
      vertex 221.01 278.052 45.8987
    endloop
  endfacet
  facet normal -0.886969 -0.354787 -0.295656
    outer loop
      vertex 23.4946 345 -252.484
      vertex -3.82291 181.634 25.5085
      vertex -42.094 277.311 25.5085
    endloop
  endfacet
  facet normal -0.928477 -0.371391 0
    outer loop
      vertex -3.82291 181.634 25.5085
      vertex -42.094 277.311 25.6085
      vertex -42.094 277.311 25.5085
    endloop
  endfacet
  facet normal 0.991938 0 -0.126723
    outer loop
      vertex 205.048 232.47 -115.409
      vertex 210.385 235.653 -73.6294
      vertex 210.385 235.553 -73.6294
    endloop
  endfacet
  facet normal 0.996073 0 -0.0885398
    outer loop
      vertex 210.385 235.653 -73.6294
      vertex 221.01 278.052 45.8987
      vertex 210.385 235.553 -73.6294
    endloop
  endfacet
  facet normal 0.630005 -0.776591 0
    outer loop
      vertex 210.385 235.553 -73.5294
      vertex 184.234 214.338 -107.237
      vertex 210.385 235.553 -73.6294
    endloop
  endfacet
  facet normal 0.650552 -0.758978 -0.0271063
    outer loop
      vertex 184.234 214.338 -107.237
      vertex 205.048 232.47 -115.409
      vertex 210.385 235.553 -73.6294
    endloop
  endfacet
endsolid OpenSCAD_Model
