solid OpenSCAD_Model
  facet normal 0.84171 0 -0.53993
    outer loop
      vertex 265.369 234.997 12.0858
      vertex 210.385 235.653 -73.6294
      vertex 265.369 235.097 12.0858
    endloop
  endfacet
  facet normal 0 0.845614 -0.533794
    outer loop
      vertex 184.234 214.438 -107.237
      vertex 210.285 235.653 -73.6294
      vertex 210.385 235.653 -73.6294
    endloop
  endfacet
  facet normal 0 -0.190942 0.981601
    outer loop
      vertex 108.29 133.772 303.71
      vertex 107.282 133.225 303.604
      vertex 107.382 133.225 303.604
    endloop
  endfacet
  facet normal 0 0.136062 -0.9907
    outer loop
      vertex 184.234 214.438 -107.237
      vertex 134.515 50.4476 -129.759
      vertex 184.134 214.438 -107.237
    endloop
  endfacet
  facet normal 0.775797 0.630982 0
    outer loop
      vertex 240.482 265.696 46.7286
      vertex 265.369 235.097 12.0858
      vertex 240.482 265.696 46.6286
    endloop
  endfacet
  facet normal 0 0 -1
    outer loop
      vertex 134.515 50.4476 -129.759
      vertex 134.615 50.3476 -129.759
      vertex 134.515 50.3476 -129.759
    endloop
  endfacet
  facet normal -0.835917 -0.50155 -0.222911
    outer loop
      vertex 95 5 35
      vertex 55.4742 11.5191 168.554
      vertex -7.63928 127.875 143.428
    endloop
  endfacet
  facet normal -0.356009 0.890024 -0.284808
    outer loop
      vertex 184.134 214.438 -107.237
      vertex 48.9701 160.372 -107.237
      vertex 220.91 278.152 45.8987
    endloop
  endfacet
  facet normal -0.999955 0.00952338 0
    outer loop
      vertex -7.15619 178.7 27.4853
      vertex -7.63928 127.975 143.528
      vertex -7.15619 178.7 27.5853
    endloop
  endfacet
  facet normal 0 -0.190942 0.981601
    outer loop
      vertex 108.19 133.772 303.71
      vertex 107.282 133.225 303.604
      vertex 108.29 133.772 303.71
    endloop
  endfacet
  facet normal -0.622513 -0.622513 0.474295
    outer loop
      vertex 74.4928 -15.5072 158.143
      vertex 129.13 -40.4765 197.082
      vertex 107.82 15.2424 242.244
    endloop
  endfacet
  facet normal 0.851728 -0.248421 0.461353
    outer loop
      vertex 250.898 -49.2376 84.4212
      vertex 169.572 34.6045 279.708
      vertex 170.216 9.99875 265.269
    endloop
  endfacet
  facet normal 0.827837 -0.177394 -0.532181
    outer loop
      vertex 134.615 50.3476 -129.759
      vertex 250.898 -49.2376 84.3212
      vertex 133.373 29.8961 -124.874
    endloop
  endfacet
  facet normal 0.413316 0 -0.910588
    outer loop
      vertex 184.234 214.438 -107.237
      vertex 134.615 50.3476 -129.759
      vertex 134.615 50.4476 -129.759
    endloop
  endfacet
  facet normal -0.116177 0 0.993229
    outer loop
      vertex 108.19 133.772 303.71
      vertex 108.19 133.872 303.71
      vertex 107.282 133.225 303.604
    endloop
  endfacet
  facet normal -0.289058 0 -0.957311
    outer loop
      vertex 111.482 50.1313 -128.353
      vertex 44.1209 153.46 -108.014
      vertex 111.482 50.2313 -128.353
    endloop
  endfacet
  facet normal -0.879016 -0.476793 0
    outer loop
      vertex -7.63928 127.875 143.528
      vertex 55.4742 11.5191 168.554
      vertex 55.4742 11.5191 168.654
    endloop
  endfacet
  facet normal -0.817806 -0.575493 -0
    outer loop
      vertex 74.4928 -15.5072 158.143
      vertex 55.4742 11.5191 168.554
      vertex 74.4928 -15.5072 158.043
    endloop
  endfacet
  facet normal 0.851728 -0.248421 0.461353
    outer loop
      vertex 169.572 34.6045 279.708
      vertex 250.898 -49.2376 84.4212
      vertex 300.045 142.529 96.9486
    endloop
  endfacet
  facet normal 0 0.845614 -0.533794
    outer loop
      vertex 184.234 214.438 -107.237
      vertex 184.134 214.438 -107.237
      vertex 210.285 235.653 -73.6294
    endloop
  endfacet
  facet normal 0.827837 -0.177394 -0.532181
    outer loop
      vertex 134.615 50.3476 -129.759
      vertex 300.045 142.529 96.8486
      vertex 250.898 -49.2376 84.3212
    endloop
  endfacet
  facet normal 0.968694 -0.248258 0
    outer loop
      vertex 300.045 142.529 96.8486
      vertex 250.898 -49.2376 84.4212
      vertex 250.898 -49.2376 84.3212
    endloop
  endfacet
  facet normal -0.93527 -0 -0.353935
    outer loop
      vertex -7.15619 178.7 27.4853
      vertex 44.1209 153.46 -108.014
      vertex -7.15619 178.6 27.4853
    endloop
  endfacet
  facet normal -0.835917 -0.50155 -0.222911
    outer loop
      vertex 120.594 33.4376 -124.961
      vertex 95 5 35
      vertex 44.1209 153.36 -108.014
    endloop
  endfacet
  facet normal 0 0 -1
    outer loop
      vertex 134.615 50.3476 -129.759
      vertex 134.515 50.4476 -129.759
      vertex 134.615 50.4476 -129.759
    endloop
  endfacet
  facet normal 0 0.136062 -0.9907
    outer loop
      vertex 134.515 50.4476 -129.759
      vertex 184.234 214.438 -107.237
      vertex 134.615 50.4476 -129.759
    endloop
  endfacet
  facet normal -0.513289 0.787044 0.342193
    outer loop
      vertex -7.63928 127.975 143.528
      vertex 107.282 133.325 303.604
      vertex -7.15619 178.7 27.5853
    endloop
  endfacet
  facet normal 0 0.942215 -0.33501
    outer loop
      vertex 221.01 278.152 45.8987
      vertex 210.285 235.653 -73.6294
      vertex 220.91 278.152 45.8987
    endloop
  endfacet
  facet normal 0.851728 -0.248421 0.461353
    outer loop
      vertex 180.307 97.9551 294.002
      vertex 169.572 34.6045 279.708
      vertex 300.045 142.529 96.9486
    endloop
  endfacet
  facet normal -0 0.843349 0.537366
    outer loop
      vertex 175.866 272.82 85.6428
      vertex 108.29 133.872 303.71
      vertex 175.966 272.82 85.6428
    endloop
  endfacet
  facet normal -0.513289 0.787044 0.342193
    outer loop
      vertex 107.282 133.325 303.604
      vertex 175.866 272.82 85.6428
      vertex -7.15619 178.7 27.5853
    endloop
  endfacet
  facet normal -0.771069 -0.296565 0.563473
    outer loop
      vertex 118.972 78.5679 290.835
      vertex 107.282 133.225 303.604
      vertex 115.686 27.0096 259.202
    endloop
  endfacet
  facet normal 0.424828 0.697932 0.576552
    outer loop
      vertex 108.29 133.872 303.71
      vertex 180.307 98.0551 294.002
      vertex 175.966 272.82 85.6428
    endloop
  endfacet
  facet normal 0.827837 -0.177394 -0.532181
    outer loop
      vertex 300.045 142.529 96.8486
      vertex 184.234 214.338 -107.237
      vertex 210.385 235.553 -73.6294
    endloop
  endfacet
  facet normal 0.827837 -0.177394 -0.532181
    outer loop
      vertex 300.045 142.529 96.8486
      vertex 134.615 50.3476 -129.759
      vertex 184.234 214.338 -107.237
    endloop
  endfacet
  facet normal 0.413316 0 -0.910588
    outer loop
      vertex 134.615 50.3476 -129.759
      vertex 184.234 214.438 -107.237
      vertex 184.234 214.338 -107.237
    endloop
  endfacet
  facet normal -0.999991 0 -0.00416663
    outer loop
      vertex -7.63928 127.975 143.428
      vertex -7.15619 178.7 27.4853
      vertex -7.15619 178.6 27.4853
    endloop
  endfacet
  facet normal -0 -0.23233 -0.972637
    outer loop
      vertex 134.615 50.3476 -129.759
      vertex 133.373 29.8961 -124.874
      vertex 134.515 50.3476 -129.759
    endloop
  endfacet
  facet normal 0.511578 -0.710526 0.483157
    outer loop
      vertex 241.643 -50.3327 100.918
      vertex 170.216 9.99875 265.269
      vertex 161.247 -3.88645 254.346
    endloop
  endfacet
  facet normal -0.261712 -0.942163 -0.20937
    outer loop
      vertex 95 -25.4301 171.935
      vertex 241.543 -50.3327 100.818
      vertex 149.853 -47.3968 202.219
    endloop
  endfacet
  facet normal -0.261712 -0.942163 -0.20937
    outer loop
      vertex 120.594 33.4376 -124.961
      vertex 241.543 -50.3327 100.818
      vertex 95 5 35
    endloop
  endfacet
  facet normal -0.812337 0 0.583188
    outer loop
      vertex -7.63928 127.875 143.528
      vertex 107.282 133.225 303.604
      vertex -7.63928 127.975 143.528
    endloop
  endfacet
  facet normal -0.0616334 0.154083 -0.986134
    outer loop
      vertex 184.134 214.438 -107.237
      vertex 44.1209 153.46 -108.014
      vertex 48.9701 160.372 -107.237
    endloop
  endfacet
  facet normal 0.517882 0.790452 -0.327084
    outer loop
      vertex 265.369 235.097 12.0858
      vertex 210.385 235.653 -73.6294
      vertex 240.482 265.696 46.6286
    endloop
  endfacet
  facet normal 0 -0.245361 0.969432
    outer loop
      vertex 118.972 78.5679 290.835
      vertex 169.572 34.6045 279.708
      vertex 119.072 78.5679 290.835
    endloop
  endfacet
  facet normal 0.775797 0.630982 0
    outer loop
      vertex 265.369 235.097 12.1858
      vertex 265.369 235.097 12.0858
      vertex 240.482 265.696 46.7286
    endloop
  endfacet
  facet normal 0 0.843349 0.537366
    outer loop
      vertex 175.866 272.82 85.6428
      vertex 108.19 133.872 303.71
      vertex 108.29 133.872 303.71
    endloop
  endfacet
  facet normal 0.0203027 -0.22333 0.974531
    outer loop
      vertex 169.572 34.6045 279.708
      vertex 180.307 97.9551 294.002
      vertex 107.382 133.225 303.604
    endloop
  endfacet
  facet normal 0.827837 -0.177394 -0.532181
    outer loop
      vertex 265.369 234.997 12.0858
      vertex 300.045 142.529 96.8486
      vertex 210.385 235.553 -73.6294
    endloop
  endfacet
  facet normal 0.789219 0 -0.614111
    outer loop
      vertex 184.234 214.338 -107.237
      vertex 184.234 214.438 -107.237
      vertex 210.385 235.653 -73.6294
    endloop
  endfacet
  facet normal -0.289058 -0 -0.957311
    outer loop
      vertex 44.1209 153.46 -108.014
      vertex 111.482 50.1313 -128.353
      vertex 44.1209 153.36 -108.014
    endloop
  endfacet
  facet normal -0.0609195 0 -0.998143
    outer loop
      vertex 134.515 50.4476 -129.759
      vertex 111.482 50.1313 -128.353
      vertex 111.482 50.2313 -128.353
    endloop
  endfacet
  facet normal -0.0571662 -0.228665 -0.971825
    outer loop
      vertex 120.594 33.4376 -124.961
      vertex 111.482 50.1313 -128.353
      vertex 133.273 29.8961 -124.874
    endloop
  endfacet
  facet normal -0.0571662 -0.228665 -0.971825
    outer loop
      vertex 111.482 50.1313 -128.353
      vertex 134.515 50.3476 -129.759
      vertex 133.273 29.8961 -124.874
    endloop
  endfacet
  facet normal -0.999991 -0 -0.00416663
    outer loop
      vertex -7.63928 127.975 143.428
      vertex -7.15619 178.6 27.4853
      vertex -7.63928 127.875 143.428
    endloop
  endfacet
  facet normal 0.851728 -0.248421 0.461353
    outer loop
      vertex 250.898 -49.2376 84.4212
      vertex 170.216 9.99875 265.269
      vertex 241.643 -50.3327 100.918
    endloop
  endfacet
  facet normal 0 -0.618269 0.785967
    outer loop
      vertex 170.216 9.99875 265.269
      vertex 161.147 -3.88645 254.346
      vertex 161.247 -3.88645 254.346
    endloop
  endfacet
  facet normal -0.383985 -0.665574 0.639975
    outer loop
      vertex 129.13 -40.4765 197.082
      vertex 149.853 -47.3968 202.319
      vertex 161.147 -3.88645 254.346
    endloop
  endfacet
  facet normal 0 -0.935318 -0.353809
    outer loop
      vertex 133.373 29.8961 -124.874
      vertex 250.898 -49.2376 84.3212
      vertex 250.798 -49.2376 84.3212
    endloop
  endfacet
  facet normal 0.117501 -0.993073 0
    outer loop
      vertex 250.898 -49.2376 84.3212
      vertex 241.643 -50.3327 100.918
      vertex 241.643 -50.3327 100.818
    endloop
  endfacet
  facet normal 0 -0.227497 0.973779
    outer loop
      vertex 118.972 78.5679 290.835
      vertex 119.072 78.5679 290.835
      vertex 107.282 133.225 303.604
    endloop
  endfacet
  facet normal 0.0203027 -0.22333 0.974531
    outer loop
      vertex 180.307 97.9551 294.002
      vertex 108.29 133.772 303.71
      vertex 107.382 133.225 303.604
    endloop
  endfacet
  facet normal -0.812337 0 0.583188
    outer loop
      vertex -7.63928 127.975 143.528
      vertex 107.282 133.225 303.604
      vertex 107.282 133.325 303.604
    endloop
  endfacet
  facet normal 0 0.942215 -0.33501
    outer loop
      vertex 210.385 235.653 -73.6294
      vertex 210.285 235.653 -73.6294
      vertex 221.01 278.152 45.8987
    endloop
  endfacet
  facet normal -0.817806 -0.575493 0
    outer loop
      vertex 55.4742 11.5191 168.554
      vertex 74.4928 -15.5072 158.143
      vertex 55.4742 11.5191 168.654
    endloop
  endfacet
  facet normal -0.771069 -0.296565 0.563473
    outer loop
      vertex 107.282 133.225 303.604
      vertex -7.63928 127.875 143.528
      vertex 55.4742 11.5191 168.654
    endloop
  endfacet
  facet normal -0.735612 0.559065 -0.382518
    outer loop
      vertex 48.9701 160.372 -107.237
      vertex 44.1209 153.46 -108.014
      vertex -3.82291 181.734 25.5085
    endloop
  endfacet
  facet normal -0.735612 0.559065 -0.382518
    outer loop
      vertex 44.1209 153.46 -108.014
      vertex -7.15619 178.7 27.4853
      vertex -3.82291 181.734 25.5085
    endloop
  endfacet
  facet normal -0 0 1
    outer loop
      vertex 108.19 133.872 303.71
      vertex 108.29 133.772 303.71
      vertex 108.29 133.872 303.71
    endloop
  endfacet
  facet normal 0 0 1
    outer loop
      vertex 108.19 133.872 303.71
      vertex 108.19 133.772 303.71
      vertex 108.29 133.772 303.71
    endloop
  endfacet
  facet normal 0.968694 -0.248258 0
    outer loop
      vertex 250.898 -49.2376 84.4212
      vertex 300.045 142.529 96.8486
      vertex 300.045 142.529 96.9486
    endloop
  endfacet
  facet normal 0.918324 0 0.395829
    outer loop
      vertex 279.327 160.86 145.013
      vertex 300.045 142.529 96.9486
      vertex 300.045 142.629 96.9486
    endloop
  endfacet
  facet normal 0.133597 -0 0.991036
    outer loop
      vertex 108.29 133.772 303.71
      vertex 180.307 97.9551 294.002
      vertex 108.29 133.872 303.71
    endloop
  endfacet
  facet normal 0.424828 0.697932 0.576552
    outer loop
      vertex 279.327 160.86 145.013
      vertex 240.482 265.696 46.7286
      vertex 180.307 98.0551 294.002
    endloop
  endfacet
  facet normal 1 -0 0
    outer loop
      vertex 300.045 142.529 96.9486
      vertex 300.045 142.529 96.8486
      vertex 300.045 142.629 96.9486
    endloop
  endfacet
  facet normal 0.925547 0 -0.378633
    outer loop
      vertex 300.045 142.529 96.8486
      vertex 265.369 234.997 12.0858
      vertex 265.369 235.097 12.0858
    endloop
  endfacet
  facet normal 0.789219 0 -0.614111
    outer loop
      vertex 184.234 214.338 -107.237
      vertex 210.385 235.653 -73.6294
      vertex 210.385 235.553 -73.6294
    endloop
  endfacet
  facet normal 0.84171 0 -0.53993
    outer loop
      vertex 210.385 235.653 -73.6294
      vertex 265.369 234.997 12.0858
      vertex 210.385 235.553 -73.6294
    endloop
  endfacet
  facet normal 0 -0.23233 -0.972637
    outer loop
      vertex 134.515 50.3476 -129.759
      vertex 133.373 29.8961 -124.874
      vertex 133.273 29.8961 -124.874
    endloop
  endfacet
  facet normal -0.0609195 0 -0.998143
    outer loop
      vertex 111.482 50.1313 -128.353
      vertex 134.515 50.4476 -129.759
      vertex 134.515 50.3476 -129.759
    endloop
  endfacet
  facet normal -0.835917 -0.50155 -0.222911
    outer loop
      vertex 44.1209 153.36 -108.014
      vertex 95 5 35
      vertex -7.63928 127.875 143.428
    endloop
  endfacet
  facet normal -0.835917 -0.50155 -0.222911
    outer loop
      vertex 111.482 50.1313 -128.353
      vertex 120.594 33.4376 -124.961
      vertex 44.1209 153.36 -108.014
    endloop
  endfacet
  facet normal -0.0616334 0.154083 -0.986134
    outer loop
      vertex 44.1209 153.46 -108.014
      vertex 184.134 214.438 -107.237
      vertex 111.482 50.2313 -128.353
    endloop
  endfacet
  facet normal -0.0616334 0.154083 -0.986134
    outer loop
      vertex 184.134 214.438 -107.237
      vertex 134.515 50.4476 -129.759
      vertex 111.482 50.2313 -128.353
    endloop
  endfacet
  facet normal 0 -0.506106 0.862471
    outer loop
      vertex 170.216 9.99875 265.269
      vertex 169.572 34.6045 279.708
      vertex 170.116 9.99875 265.269
    endloop
  endfacet
  facet normal -0.383985 -0.665574 0.639975
    outer loop
      vertex 129.13 -40.4765 197.082
      vertex 161.147 -3.88645 254.346
      vertex 107.82 15.2424 242.244
    endloop
  endfacet
  facet normal 0 -0.999581 0.0289411
    outer loop
      vertex 241.643 -50.3327 100.918
      vertex 149.853 -47.3968 202.319
      vertex 241.543 -50.3327 100.918
    endloop
  endfacet
  facet normal 0.117501 -0.993073 0
    outer loop
      vertex 250.898 -49.2376 84.3212
      vertex 250.898 -49.2376 84.4212
      vertex 241.643 -50.3327 100.918
    endloop
  endfacet
  facet normal -0.0320033 -0.999488 0
    outer loop
      vertex 241.543 -50.3327 100.818
      vertex 149.853 -47.3968 202.319
      vertex 149.853 -47.3968 202.219
    endloop
  endfacet
  facet normal -0.435561 -0.900159 0
    outer loop
      vertex 74.4928 -15.5072 158.143
      vertex 95 -25.4301 171.935
      vertex 95 -25.4301 172.035
    endloop
  endfacet
  facet normal -0 -0.935318 -0.353809
    outer loop
      vertex 133.373 29.8961 -124.874
      vertex 250.798 -49.2376 84.3212
      vertex 133.273 29.8961 -124.874
    endloop
  endfacet
  facet normal -0.261712 -0.942163 -0.20937
    outer loop
      vertex 120.594 33.4376 -124.961
      vertex 133.273 29.8961 -124.874
      vertex 241.543 -50.3327 100.818
    endloop
  endfacet
  facet normal -1 0 0
    outer loop
      vertex -7.63928 127.875 143.528
      vertex -7.63928 127.975 143.528
      vertex -7.63928 127.975 143.428
    endloop
  endfacet
  facet normal -0.999955 0.00952338 0
    outer loop
      vertex -7.63928 127.975 143.528
      vertex -7.15619 178.7 27.4853
      vertex -7.63928 127.975 143.428
    endloop
  endfacet
  facet normal -0.116177 0 0.993229
    outer loop
      vertex 107.282 133.225 303.604
      vertex 108.19 133.872 303.71
      vertex 107.282 133.325 303.604
    endloop
  endfacet
  facet normal -0.513289 0.787044 0.342193
    outer loop
      vertex 108.19 133.872 303.71
      vertex 175.866 272.82 85.6428
      vertex 107.282 133.325 303.604
    endloop
  endfacet
  facet normal -0.383985 -0.665574 0.639975
    outer loop
      vertex 161.147 -3.88645 254.346
      vertex 115.686 27.0096 259.202
      vertex 107.82 15.2424 242.244
    endloop
  endfacet
  facet normal -0.771069 -0.296565 0.563473
    outer loop
      vertex 107.282 133.225 303.604
      vertex 55.4742 11.5191 168.654
      vertex 115.686 27.0096 259.202
    endloop
  endfacet
  facet normal -0.452139 0.891947 0
    outer loop
      vertex 175.866 272.82 85.6428
      vertex -3.82291 181.734 25.5085
      vertex -3.82291 181.734 25.6085
    endloop
  endfacet
  facet normal -0.673049 0.739598 0
    outer loop
      vertex -3.82291 181.734 25.5085
      vertex -7.15619 178.7 27.4853
      vertex -3.82291 181.734 25.6085
    endloop
  endfacet
  facet normal -0.356009 0.890024 -0.284808
    outer loop
      vertex 48.9701 160.372 -107.237
      vertex -3.82291 181.734 25.5085
      vertex 220.91 278.152 45.8987
    endloop
  endfacet
  facet normal -0.452139 0.891947 0
    outer loop
      vertex -3.82291 181.734 25.5085
      vertex 175.866 272.82 85.6428
      vertex 175.866 272.82 85.5428
    endloop
  endfacet
  facet normal 0 -0.227497 0.973779
    outer loop
      vertex 107.282 133.225 303.604
      vertex 119.072 78.5679 290.835
      vertex 107.382 133.225 303.604
    endloop
  endfacet
  facet normal 0.0203027 -0.22333 0.974531
    outer loop
      vertex 119.072 78.5679 290.835
      vertex 169.572 34.6045 279.708
      vertex 107.382 133.225 303.604
    endloop
  endfacet
  facet normal 0.832838 0 0.553517
    outer loop
      vertex 279.327 160.86 145.013
      vertex 180.307 97.9551 294.002
      vertex 279.327 160.76 145.013
    endloop
  endfacet
  facet normal 0.853595 0.487769 0.182913
    outer loop
      vertex 265.369 235.097 12.1858
      vertex 240.482 265.696 46.7286
      vertex 300.045 142.629 96.9486
    endloop
  endfacet
  facet normal 0 -0.618269 0.785967
    outer loop
      vertex 170.216 9.99875 265.269
      vertex 170.116 9.99875 265.269
      vertex 161.147 -3.88645 254.346
    endloop
  endfacet
  facet normal -0.247582 -0.495164 0.832776
    outer loop
      vertex 161.147 -3.88645 254.346
      vertex 170.116 9.99875 265.269
      vertex 169.472 34.6045 279.708
    endloop
  endfacet
  facet normal 0 -0.506106 0.862471
    outer loop
      vertex 170.116 9.99875 265.269
      vertex 169.572 34.6045 279.708
      vertex 169.472 34.6045 279.708
    endloop
  endfacet
  facet normal 0 -0.245361 0.969432
    outer loop
      vertex 169.572 34.6045 279.708
      vertex 118.972 78.5679 290.835
      vertex 169.472 34.6045 279.708
    endloop
  endfacet
  facet normal 0 -0.767101 0.641526
    outer loop
      vertex 161.147 -3.88645 254.346
      vertex 149.853 -47.3968 202.319
      vertex 149.953 -47.3968 202.319
    endloop
  endfacet
  facet normal 0 -0.999581 0.0289411
    outer loop
      vertex 149.853 -47.3968 202.319
      vertex 241.643 -50.3327 100.918
      vertex 149.953 -47.3968 202.319
    endloop
  endfacet
  facet normal -0.261712 -0.942163 -0.20937
    outer loop
      vertex 133.273 29.8961 -124.874
      vertex 250.798 -49.2376 84.3212
      vertex 241.543 -50.3327 100.818
    endloop
  endfacet
  facet normal 0 -0.997804 -0.0662354
    outer loop
      vertex 250.798 -49.2376 84.3212
      vertex 250.898 -49.2376 84.3212
      vertex 241.543 -50.3327 100.818
    endloop
  endfacet
  facet normal -0.261712 -0.942163 -0.20937
    outer loop
      vertex 241.543 -50.3327 100.818
      vertex 95 -25.4301 171.935
      vertex 95 5 35
    endloop
  endfacet
  facet normal -0.835917 -0.50155 -0.222911
    outer loop
      vertex 55.4742 11.5191 168.554
      vertex 95 5 35
      vertex 74.4928 -15.5072 158.043
    endloop
  endfacet
  facet normal -0.403398 -0.915025 0
    outer loop
      vertex 95 -25.4301 171.935
      vertex 129.13 -40.4765 197.082
      vertex 95 -25.4301 172.035
    endloop
  endfacet
  facet normal -0.622513 -0.622513 0.474295
    outer loop
      vertex 129.13 -40.4765 197.082
      vertex 74.4928 -15.5072 158.143
      vertex 95 -25.4301 172.035
    endloop
  endfacet
  facet normal -0.247582 -0.495164 0.832776
    outer loop
      vertex 161.147 -3.88645 254.346
      vertex 169.472 34.6045 279.708
      vertex 115.686 27.0096 259.202
    endloop
  endfacet
  facet normal -0.247582 -0.495164 0.832776
    outer loop
      vertex 169.472 34.6045 279.708
      vertex 118.972 78.5679 290.835
      vertex 115.686 27.0096 259.202
    endloop
  endfacet
  facet normal -0.513289 0.787044 0.342193
    outer loop
      vertex 175.866 272.82 85.6428
      vertex -3.82291 181.734 25.6085
      vertex -7.15619 178.7 27.5853
    endloop
  endfacet
  facet normal -0.673049 0.739598 0
    outer loop
      vertex -3.82291 181.734 25.6085
      vertex -7.15619 178.7 27.4853
      vertex -7.15619 178.7 27.5853
    endloop
  endfacet
  facet normal 0.424828 0.697932 0.576552
    outer loop
      vertex 180.307 98.0551 294.002
      vertex 240.482 265.696 46.7286
      vertex 175.966 272.82 85.6428
    endloop
  endfacet
  facet normal 0.853595 0.487769 0.182913
    outer loop
      vertex 240.482 265.696 46.7286
      vertex 279.327 160.86 145.013
      vertex 300.045 142.629 96.9486
    endloop
  endfacet
  facet normal 0.133597 0 0.991036
    outer loop
      vertex 108.29 133.872 303.71
      vertex 180.307 97.9551 294.002
      vertex 180.307 98.0551 294.002
    endloop
  endfacet
  facet normal 0.832838 -0 0.553517
    outer loop
      vertex 180.307 97.9551 294.002
      vertex 279.327 160.86 145.013
      vertex 180.307 98.0551 294.002
    endloop
  endfacet
  facet normal 0.851728 -0.248421 0.461353
    outer loop
      vertex 180.307 97.9551 294.002
      vertex 300.045 142.529 96.9486
      vertex 279.327 160.76 145.013
    endloop
  endfacet
  facet normal 0.918324 0 0.395829
    outer loop
      vertex 300.045 142.529 96.9486
      vertex 279.327 160.86 145.013
      vertex 279.327 160.76 145.013
    endloop
  endfacet
  facet normal 0.925547 0 -0.378633
    outer loop
      vertex 300.045 142.529 96.8486
      vertex 265.369 235.097 12.0858
      vertex 300.045 142.629 96.8486
    endloop
  endfacet
  facet normal 0.936329 0.351123 -0
    outer loop
      vertex 265.369 235.097 12.0858
      vertex 265.369 235.097 12.1858
      vertex 300.045 142.629 96.9486
    endloop
  endfacet
  facet normal -0.835917 -0.50155 -0.222911
    outer loop
      vertex -7.15619 178.6 27.4853
      vertex 44.1209 153.36 -108.014
      vertex -7.63928 127.875 143.428
    endloop
  endfacet
  facet normal -0.93527 0 -0.353935
    outer loop
      vertex -7.15619 178.6 27.4853
      vertex 44.1209 153.46 -108.014
      vertex 44.1209 153.36 -108.014
    endloop
  endfacet
  facet normal 0 -0.767101 0.641526
    outer loop
      vertex 161.147 -3.88645 254.346
      vertex 149.953 -47.3968 202.319
      vertex 161.247 -3.88645 254.346
    endloop
  endfacet
  facet normal 0.511578 -0.710526 0.483157
    outer loop
      vertex 149.953 -47.3968 202.319
      vertex 241.643 -50.3327 100.918
      vertex 161.247 -3.88645 254.346
    endloop
  endfacet
  facet normal 0 -1 -0
    outer loop
      vertex 241.643 -50.3327 100.918
      vertex 241.543 -50.3327 100.818
      vertex 241.643 -50.3327 100.818
    endloop
  endfacet
  facet normal 0 -0.997804 -0.0662354
    outer loop
      vertex 241.543 -50.3327 100.818
      vertex 250.898 -49.2376 84.3212
      vertex 241.643 -50.3327 100.818
    endloop
  endfacet
  facet normal -0.0320033 -0.999488 0
    outer loop
      vertex 149.853 -47.3968 202.319
      vertex 241.543 -50.3327 100.818
      vertex 241.543 -50.3327 100.918
    endloop
  endfacet
  facet normal 0 -1 0
    outer loop
      vertex 241.543 -50.3327 100.818
      vertex 241.643 -50.3327 100.918
      vertex 241.543 -50.3327 100.918
    endloop
  endfacet
  facet normal -0.316741 -0.948512 -0
    outer loop
      vertex 149.853 -47.3968 202.319
      vertex 129.13 -40.4765 197.082
      vertex 149.853 -47.3968 202.219
    endloop
  endfacet
  facet normal -0.261712 -0.942163 -0.20937
    outer loop
      vertex 95 -25.4301 171.935
      vertex 149.853 -47.3968 202.219
      vertex 129.13 -40.4765 196.982
    endloop
  endfacet
  facet normal -0.309426 -0.928279 -0.206284
    outer loop
      vertex 95 5 35
      vertex 95 -25.4301 171.935
      vertex 74.4928 -15.5072 158.043
    endloop
  endfacet
  facet normal -0.435561 -0.900159 0
    outer loop
      vertex 95 -25.4301 171.935
      vertex 74.4928 -15.5072 158.143
      vertex 74.4928 -15.5072 158.043
    endloop
  endfacet
  facet normal -0.771069 -0.296565 0.563473
    outer loop
      vertex 115.686 27.0096 259.202
      vertex 55.4742 11.5191 168.654
      vertex 107.82 15.2424 242.244
    endloop
  endfacet
  facet normal -0.622513 -0.622513 0.474295
    outer loop
      vertex 55.4742 11.5191 168.654
      vertex 74.4928 -15.5072 158.143
      vertex 107.82 15.2424 242.244
    endloop
  endfacet
  facet normal 0 0.991078 0.133283
    outer loop
      vertex 175.866 272.82 85.6428
      vertex 221.01 278.152 45.9987
      vertex 220.91 278.152 45.9987
    endloop
  endfacet
  facet normal 0 1 0
    outer loop
      vertex 221.01 278.152 45.9987
      vertex 221.01 278.152 45.8987
      vertex 220.91 278.152 45.8987
    endloop
  endfacet
  facet normal 0.936329 0.351123 0
    outer loop
      vertex 265.369 235.097 12.0858
      vertex 300.045 142.629 96.9486
      vertex 300.045 142.629 96.8486
    endloop
  endfacet
  facet normal 1 0 0
    outer loop
      vertex 300.045 142.629 96.9486
      vertex 300.045 142.529 96.8486
      vertex 300.045 142.629 96.8486
    endloop
  endfacet
  facet normal -0.879016 -0.476793 0
    outer loop
      vertex 55.4742 11.5191 168.554
      vertex -7.63928 127.875 143.528
      vertex -7.63928 127.875 143.428
    endloop
  endfacet
  facet normal -1 0 0
    outer loop
      vertex -7.63928 127.875 143.528
      vertex -7.63928 127.975 143.428
      vertex -7.63928 127.875 143.428
    endloop
  endfacet
  facet normal -0.316741 -0.948512 0
    outer loop
      vertex 149.853 -47.3968 202.219
      vertex 129.13 -40.4765 197.082
      vertex 129.13 -40.4765 196.982
    endloop
  endfacet
  facet normal -0.403398 -0.915025 -0
    outer loop
      vertex 129.13 -40.4765 197.082
      vertex 95 -25.4301 171.935
      vertex 129.13 -40.4765 196.982
    endloop
  endfacet
  facet normal 0.538851 0.842401 0
    outer loop
      vertex 240.482 265.696 46.7286
      vertex 221.01 278.152 45.8987
      vertex 221.01 278.152 45.9987
    endloop
  endfacet
  facet normal -0.356009 0.890024 -0.284808
    outer loop
      vertex 210.285 235.653 -73.6294
      vertex 184.134 214.438 -107.237
      vertex 220.91 278.152 45.8987
    endloop
  endfacet
  facet normal 0.517882 0.790452 -0.327084
    outer loop
      vertex 210.385 235.653 -73.6294
      vertex 221.01 278.152 45.8987
      vertex 240.482 265.696 46.6286
    endloop
  endfacet
  facet normal 0.538851 0.842401 0
    outer loop
      vertex 221.01 278.152 45.8987
      vertex 240.482 265.696 46.7286
      vertex 240.482 265.696 46.6286
    endloop
  endfacet
  facet normal -0.356009 0.890024 -0.284808
    outer loop
      vertex -3.82291 181.734 25.5085
      vertex 175.866 272.82 85.5428
      vertex 220.91 278.152 45.8987
    endloop
  endfacet
  facet normal -0.117541 0.993068 0
    outer loop
      vertex 175.866 272.82 85.5428
      vertex 175.866 272.82 85.6428
      vertex 220.91 278.152 45.8987
    endloop
  endfacet
  facet normal 0.424828 0.697932 0.576552
    outer loop
      vertex 240.482 265.696 46.7286
      vertex 221.01 278.152 45.9987
      vertex 175.966 272.82 85.6428
    endloop
  endfacet
  facet normal 0 0.991078 0.133283
    outer loop
      vertex 221.01 278.152 45.9987
      vertex 175.866 272.82 85.6428
      vertex 175.966 272.82 85.6428
    endloop
  endfacet
  facet normal 0 1 0
    outer loop
      vertex 221.01 278.152 45.9987
      vertex 220.91 278.152 45.8987
      vertex 220.91 278.152 45.9987
    endloop
  endfacet
  facet normal -0.117541 0.993068 0
    outer loop
      vertex 220.91 278.152 45.8987
      vertex 175.866 272.82 85.6428
      vertex 220.91 278.152 45.9987
    endloop
  endfacet
endsolid OpenSCAD_Model
