solid OpenSCAD_Model
  facet normal 0 0 1
    outer loop
      vertex -242.407 -215.057 -252.191
      vertex -242.307 -215.057 -252.191
      vertex -242.307 -214.957 -252.191
    endloop
  endfacet
  facet normal 0 0 1
    outer loop
      vertex -242.407 -215.057 -252.191
      vertex -242.307 -214.957 -252.191
      vertex -242.407 -214.957 -252.191
    endloop
  endfacet
  facet normal -0.935697 0 0.352804
    outer loop
      vertex -350.787 24.4493 -278.073
      vertex -391.903 35.8903 -387.12
      vertex -350.787 24.3493 -278.073
    endloop
  endfacet
  facet normal 0.54052 -0 0.841331
    outer loop
      vertex -192.946 -195.46 -275.485
      vertex -120.581 -121.478 -321.976
      vertex -192.946 -195.36 -275.485
    endloop
  endfacet
  facet normal -0.999978 0.0065788 0
    outer loop
      vertex -392.381 -36.7772 -479.489
      vertex -391.903 35.8903 -387.12
      vertex -391.903 35.8903 -387.22
    endloop
  endfacet
  facet normal 0 -1 0
    outer loop
      vertex -263.081 -277.144 -391.822
      vertex -262.981 -277.144 -391.922
      vertex -262.981 -277.144 -391.822
    endloop
  endfacet
  facet normal 0.45422 -0.746219 -0.486664
    outer loop
      vertex -262.981 -277.144 -391.922
      vertex -145.583 -83.9756 -578.541
      vertex -116.611 -127.434 -484.864
    endloop
  endfacet
  facet normal 0 -0.960735 0.277469
    outer loop
      vertex -247.287 -255.729 -317.673
      vertex -263.081 -277.144 -391.822
      vertex -262.981 -277.144 -391.822
    endloop
  endfacet
  facet normal 0 -0.941372 -0.33737
    outer loop
      vertex -306.464 -244.857 -482.013
      vertex -262.981 -277.144 -391.922
      vertex -263.081 -277.144 -391.922
    endloop
  endfacet
  facet normal -0.159771 0.987154 0
    outer loop
      vertex -391.903 35.8903 -387.22
      vertex -391.903 35.8903 -387.12
      vertex -241.73 60.1957 -539.707
    endloop
  endfacet
  facet normal 0.727533 -0.684737 0.042796
    outer loop
      vertex -120.581 -121.478 -321.976
      vertex -192.946 -195.46 -275.485
      vertex -116.611 -127.434 -484.764
    endloop
  endfacet
  facet normal -0 -0.941372 -0.33737
    outer loop
      vertex -306.464 -244.857 -482.013
      vertex -263.081 -277.144 -391.922
      vertex -306.564 -244.857 -482.013
    endloop
  endfacet
  facet normal -0.180328 -0 -0.983607
    outer loop
      vertex -145.683 -83.8756 -578.541
      vertex -145.683 -83.9756 -578.541
      vertex -234.549 49.4233 -562.249
    endloop
  endfacet
  facet normal -0.232275 0 0.97265
    outer loop
      vertex -242.407 -215.057 -252.191
      vertex -350.787 24.4493 -278.073
      vertex -350.787 24.3493 -278.073
    endloop
  endfacet
  facet normal -0 -0.514496 -0.857493
    outer loop
      vertex -145.583 -83.9756 -578.541
      vertex -306.464 -244.857 -482.013
      vertex -145.683 -83.9756 -578.541
    endloop
  endfacet
  facet normal -0.596147 -0.802875 0
    outer loop
      vertex -263.081 -277.144 -391.922
      vertex -263.081 -277.144 -391.822
      vertex -306.564 -244.857 -481.913
    endloop
  endfacet
  facet normal -0.882258 -0.367607 0.294086
    outer loop
      vertex -242.407 -215.057 -252.191
      vertex -350.787 24.3493 -278.073
      vertex -247.287 -255.729 -317.673
    endloop
  endfacet
  facet normal -0.464389 -0 -0.885631
    outer loop
      vertex -392.381 -36.7772 -479.489
      vertex -234.549 49.3233 -562.249
      vertex -392.381 -36.8772 -479.489
    endloop
  endfacet
  facet normal 0.45422 -0.746219 -0.486664
    outer loop
      vertex -262.981 -277.144 -391.922
      vertex -306.464 -244.857 -482.013
      vertex -145.583 -83.9756 -578.541
    endloop
  endfacet
  facet normal 0 0 -1
    outer loop
      vertex -145.683 -83.8756 -578.541
      vertex -145.583 -83.9756 -578.541
      vertex -145.683 -83.9756 -578.541
    endloop
  endfacet
  facet normal 0.426775 0 0.904358
    outer loop
      vertex -242.307 -214.957 -252.191
      vertex -192.946 -195.46 -275.485
      vertex -192.946 -195.36 -275.485
    endloop
  endfacet
  facet normal 0.426775 0 0.904358
    outer loop
      vertex -242.307 -214.957 -252.191
      vertex -242.307 -215.057 -252.191
      vertex -192.946 -195.46 -275.485
    endloop
  endfacet
  facet normal 0 0.107482 0.994207
    outer loop
      vertex -242.307 -214.957 -252.191
      vertex -350.787 24.4493 -278.073
      vertex -242.407 -214.957 -252.191
    endloop
  endfacet
  facet normal -0.232275 0 0.97265
    outer loop
      vertex -350.787 24.4493 -278.073
      vertex -242.407 -215.057 -252.191
      vertex -242.407 -214.957 -252.191
    endloop
  endfacet
  facet normal -0.0396838 0.992095 0.119051
    outer loop
      vertex -391.903 35.8903 -387.12
      vertex -350.787 24.4493 -278.073
      vertex -225.142 35.3133 -326.725
    endloop
  endfacet
  facet normal 0.331042 0.248282 0.910366
    outer loop
      vertex -242.307 -214.957 -252.191
      vertex -192.946 -195.36 -275.485
      vertex -350.687 24.4493 -278.073
    endloop
  endfacet
  facet normal -0.935697 0 0.352804
    outer loop
      vertex -350.787 24.3493 -278.073
      vertex -391.903 35.8903 -387.12
      vertex -391.903 35.7903 -387.12
    endloop
  endfacet
  facet normal 0 -0.849477 0.527626
    outer loop
      vertex -242.307 -215.057 -252.191
      vertex -247.287 -255.729 -317.673
      vertex -247.187 -255.729 -317.673
    endloop
  endfacet
  facet normal 0 0.975964 0.217934
    outer loop
      vertex -350.787 24.4493 -278.073
      vertex -225.042 35.3133 -326.725
      vertex -225.142 35.3133 -326.725
    endloop
  endfacet
  facet normal -0.601668 0.629017 -0.492274
    outer loop
      vertex -392.381 -36.7772 -479.489
      vertex -391.903 35.8903 -387.22
      vertex -241.73 60.1957 -539.707
    endloop
  endfacet
  facet normal -0.999978 0.0065788 0
    outer loop
      vertex -391.903 35.8903 -387.12
      vertex -392.381 -36.7772 -479.489
      vertex -392.381 -36.7772 -479.389
    endloop
  endfacet
  facet normal -0.882258 -0.367607 0.294086
    outer loop
      vertex -263.081 -277.144 -391.822
      vertex -247.287 -255.729 -317.673
      vertex -306.564 -244.857 -481.913
    endloop
  endfacet
  facet normal 0 -1 0
    outer loop
      vertex -262.981 -277.144 -391.922
      vertex -263.081 -277.144 -391.822
      vertex -263.081 -277.144 -391.922
    endloop
  endfacet
  facet normal -0.999987 0 0.00518128
    outer loop
      vertex -391.903 35.8903 -387.12
      vertex -392.381 -36.7772 -479.389
      vertex -391.903 35.7903 -387.12
    endloop
  endfacet
  facet normal 0 -0.960735 0.277469
    outer loop
      vertex -247.287 -255.729 -317.673
      vertex -262.981 -277.144 -391.822
      vertex -247.187 -255.729 -317.673
    endloop
  endfacet
  facet normal 0 -0.849477 0.527626
    outer loop
      vertex -242.307 -215.057 -252.191
      vertex -242.407 -215.057 -252.191
      vertex -247.287 -255.729 -317.673
    endloop
  endfacet
  facet normal 0.715036 -0.699087 0
    outer loop
      vertex -262.981 -277.144 -391.822
      vertex -116.611 -127.434 -484.864
      vertex -116.611 -127.434 -484.764
    endloop
  endfacet
  facet normal 0.955352 0 -0.29547
    outer loop
      vertex -116.611 -127.434 -484.864
      vertex -145.583 -83.9756 -578.541
      vertex -116.611 -127.334 -484.864
    endloop
  endfacet
  facet normal -0.882258 -0.367607 0.294086
    outer loop
      vertex -306.564 -244.857 -481.913
      vertex -391.903 35.7903 -387.12
      vertex -392.381 -36.8772 -479.389
    endloop
  endfacet
  facet normal -0.601668 0.629017 -0.492274
    outer loop
      vertex -392.381 -36.7772 -479.489
      vertex -241.73 60.1957 -539.707
      vertex -234.549 49.4233 -562.249
    endloop
  endfacet
  facet normal 1 0 0
    outer loop
      vertex -116.611 -127.434 -484.864
      vertex -116.611 -127.334 -484.864
      vertex -116.611 -127.434 -484.764
    endloop
  endfacet
  facet normal 0.331042 0.248282 0.910366
    outer loop
      vertex -192.946 -195.36 -275.485
      vertex -225.042 35.3133 -326.725
      vertex -350.687 24.4493 -278.073
    endloop
  endfacet
  facet normal 0 0.121319 -0.992614
    outer loop
      vertex -145.683 -83.8756 -578.541
      vertex -234.549 49.4233 -562.249
      vertex -234.449 49.4233 -562.249
    endloop
  endfacet
  facet normal -0.464389 0 -0.885631
    outer loop
      vertex -392.381 -36.7772 -479.489
      vertex -234.549 49.4233 -562.249
      vertex -234.549 49.3233 -562.249
    endloop
  endfacet
  facet normal -0.0396838 0.992095 0.119051
    outer loop
      vertex -391.903 35.8903 -387.12
      vertex -225.142 35.3133 -326.725
      vertex -241.73 60.1957 -539.607
    endloop
  endfacet
  facet normal -0 0.993238 0.116093
    outer loop
      vertex -225.142 35.3133 -326.725
      vertex -225.042 35.3133 -326.725
      vertex -241.73 60.1957 -539.607
    endloop
  endfacet
  facet normal 0 0.975964 0.217934
    outer loop
      vertex -225.042 35.3133 -326.725
      vertex -350.787 24.4493 -278.073
      vertex -350.687 24.4493 -278.073
    endloop
  endfacet
  facet normal -0 0.107482 0.994207
    outer loop
      vertex -350.787 24.4493 -278.073
      vertex -242.307 -214.957 -252.191
      vertex -350.687 24.4493 -278.073
    endloop
  endfacet
  facet normal -0.924399 -0.381427 0
    outer loop
      vertex -306.564 -244.857 -482.013
      vertex -306.564 -244.857 -481.913
      vertex -392.381 -36.8772 -479.389
    endloop
  endfacet
  facet normal -0.596147 -0.802875 0
    outer loop
      vertex -263.081 -277.144 -391.922
      vertex -306.564 -244.857 -481.913
      vertex -306.564 -244.857 -482.013
    endloop
  endfacet
  facet normal -0.882258 -0.367607 0.294086
    outer loop
      vertex -306.564 -244.857 -481.913
      vertex -247.287 -255.729 -317.673
      vertex -391.903 35.7903 -387.12
    endloop
  endfacet
  facet normal -0.882258 -0.367607 0.294086
    outer loop
      vertex -247.287 -255.729 -317.673
      vertex -350.787 24.3493 -278.073
      vertex -391.903 35.7903 -387.12
    endloop
  endfacet
  facet normal 0.715036 -0.699087 0
    outer loop
      vertex -262.981 -277.144 -391.922
      vertex -116.611 -127.434 -484.864
      vertex -262.981 -277.144 -391.822
    endloop
  endfacet
  facet normal 0.727533 -0.684737 0.042796
    outer loop
      vertex -192.946 -195.46 -275.485
      vertex -262.981 -277.144 -391.822
      vertex -116.611 -127.434 -484.764
    endloop
  endfacet
  facet normal 0 0.902269 -0.431173
    outer loop
      vertex -234.549 49.4233 -562.249
      vertex -241.73 60.1957 -539.707
      vertex -234.449 49.4233 -562.249
    endloop
  endfacet
  facet normal 0.83205 0.5547 3.89584e-13
    outer loop
      vertex -120.581 -121.378 -321.976
      vertex -116.611 -127.334 -484.764
      vertex -145.583 -83.8756 -578.441
    endloop
  endfacet
  facet normal 0.331042 0.248282 0.910366
    outer loop
      vertex -225.042 35.3133 -326.725
      vertex -192.946 -195.36 -275.485
      vertex -120.581 -121.378 -321.976
    endloop
  endfacet
  facet normal 0.54052 0 0.841331
    outer loop
      vertex -192.946 -195.36 -275.485
      vertex -120.581 -121.478 -321.976
      vertex -120.581 -121.378 -321.976
    endloop
  endfacet
  facet normal 0 1 0
    outer loop
      vertex -241.73 60.1957 -539.707
      vertex -241.63 60.1957 -539.607
      vertex -241.63 60.1957 -539.707
    endloop
  endfacet
  facet normal 0.83205 0.5547 0
    outer loop
      vertex -145.583 -83.8756 -578.541
      vertex -234.449 49.4233 -562.249
      vertex -234.449 49.4233 -562.149
    endloop
  endfacet
  facet normal 0.83205 0.5547 2.31791e-12
    outer loop
      vertex -225.042 35.3133 -326.725
      vertex -120.581 -121.378 -321.976
      vertex -234.449 49.4233 -562.149
    endloop
  endfacet
  facet normal -0.159771 0.987154 0
    outer loop
      vertex -241.73 60.1957 -539.707
      vertex -391.903 35.8903 -387.12
      vertex -241.73 60.1957 -539.607
    endloop
  endfacet
  facet normal -0.180328 -0 -0.983607
    outer loop
      vertex -234.549 49.4233 -562.249
      vertex -145.683 -83.9756 -578.541
      vertex -234.549 49.3233 -562.249
    endloop
  endfacet
  facet normal 0 -0.514496 -0.857493
    outer loop
      vertex -145.683 -83.9756 -578.541
      vertex -306.464 -244.857 -482.013
      vertex -306.564 -244.857 -482.013
    endloop
  endfacet
  facet normal 0 0.121319 -0.992614
    outer loop
      vertex -145.683 -83.8756 -578.541
      vertex -234.449 49.4233 -562.249
      vertex -145.583 -83.8756 -578.541
    endloop
  endfacet
  facet normal 0.999703 0 0.024383
    outer loop
      vertex -120.581 -121.378 -321.976
      vertex -120.581 -121.478 -321.976
      vertex -116.611 -127.434 -484.764
    endloop
  endfacet
  facet normal 0.727533 -0.684737 0.042796
    outer loop
      vertex -262.981 -277.144 -391.822
      vertex -192.946 -195.46 -275.485
      vertex -247.187 -255.729 -317.673
    endloop
  endfacet
  facet normal 0.500959 -0.751439 0.429394
    outer loop
      vertex -192.946 -195.46 -275.485
      vertex -242.307 -215.057 -252.191
      vertex -247.187 -255.729 -317.673
    endloop
  endfacet
  facet normal -0.393038 -0.151169 -0.907011
    outer loop
      vertex -145.683 -83.9756 -578.541
      vertex -306.564 -244.857 -482.013
      vertex -392.381 -36.8772 -479.489
    endloop
  endfacet
  facet normal -0.393038 -0.151169 -0.907011
    outer loop
      vertex -234.549 49.3233 -562.249
      vertex -145.683 -83.9756 -578.541
      vertex -392.381 -36.8772 -479.489
    endloop
  endfacet
  facet normal 0.83205 0.5547 0
    outer loop
      vertex -116.611 -127.334 -484.764
      vertex -145.583 -83.8756 -578.541
      vertex -145.583 -83.8756 -578.441
    endloop
  endfacet
  facet normal 0.83205 0.5547 0
    outer loop
      vertex -116.611 -127.334 -484.764
      vertex -116.611 -127.334 -484.864
      vertex -145.583 -83.8756 -578.541
    endloop
  endfacet
  facet normal -0.999987 0 0.00518128
    outer loop
      vertex -391.903 35.7903 -387.12
      vertex -392.381 -36.7772 -479.389
      vertex -392.381 -36.8772 -479.389
    endloop
  endfacet
  facet normal -1 -0 -0
    outer loop
      vertex -392.381 -36.7772 -479.389
      vertex -392.381 -36.7772 -479.489
      vertex -392.381 -36.8772 -479.389
    endloop
  endfacet
  facet normal 0.999703 0 0.024383
    outer loop
      vertex -120.581 -121.378 -321.976
      vertex -116.611 -127.434 -484.764
      vertex -116.611 -127.334 -484.764
    endloop
  endfacet
  facet normal 1 -0 0
    outer loop
      vertex -116.611 -127.434 -484.764
      vertex -116.611 -127.334 -484.864
      vertex -116.611 -127.334 -484.764
    endloop
  endfacet
  facet normal 0 1 0
    outer loop
      vertex -241.73 60.1957 -539.707
      vertex -241.73 60.1957 -539.607
      vertex -241.63 60.1957 -539.607
    endloop
  endfacet
  facet normal -0 0.993238 0.116093
    outer loop
      vertex -241.73 60.1957 -539.607
      vertex -225.042 35.3133 -326.725
      vertex -241.63 60.1957 -539.607
    endloop
  endfacet
  facet normal -0.924399 -0.381427 0
    outer loop
      vertex -306.564 -244.857 -482.013
      vertex -392.381 -36.8772 -479.389
      vertex -392.381 -36.8772 -479.489
    endloop
  endfacet
  facet normal -1 0 0
    outer loop
      vertex -392.381 -36.8772 -479.389
      vertex -392.381 -36.7772 -479.489
      vertex -392.381 -36.8772 -479.489
    endloop
  endfacet
  facet normal 0.955352 0 -0.29547
    outer loop
      vertex -116.611 -127.334 -484.864
      vertex -145.583 -83.9756 -578.541
      vertex -145.583 -83.8756 -578.541
    endloop
  endfacet
  facet normal 0 0 -1
    outer loop
      vertex -145.583 -83.9756 -578.541
      vertex -145.683 -83.8756 -578.541
      vertex -145.583 -83.8756 -578.541
    endloop
  endfacet
  facet normal 0.83205 0.5547 -0
    outer loop
      vertex -234.449 49.4233 -562.249
      vertex -241.63 60.1957 -539.607
      vertex -234.449 49.4233 -562.149
    endloop
  endfacet
  facet normal 0.83205 0.5547 5.65853e-12
    outer loop
      vertex -241.63 60.1957 -539.607
      vertex -225.042 35.3133 -326.725
      vertex -234.449 49.4233 -562.149
    endloop
  endfacet
  facet normal 0.83205 0.5547 0
    outer loop
      vertex -241.63 60.1957 -539.607
      vertex -234.449 49.4233 -562.249
      vertex -241.63 60.1957 -539.707
    endloop
  endfacet
  facet normal 0 0.902269 -0.431173
    outer loop
      vertex -234.449 49.4233 -562.249
      vertex -241.73 60.1957 -539.707
      vertex -241.63 60.1957 -539.707
    endloop
  endfacet
  facet normal 0.83205 0.5547 -0
    outer loop
      vertex -145.583 -83.8756 -578.541
      vertex -234.449 49.4233 -562.149
      vertex -145.583 -83.8756 -578.441
    endloop
  endfacet
  facet normal 0.83205 0.5547 1.73303e-12
    outer loop
      vertex -234.449 49.4233 -562.149
      vertex -120.581 -121.378 -321.976
      vertex -145.583 -83.8756 -578.441
    endloop
  endfacet
endsolid OpenSCAD_Model
