solid OpenSCAD_Model
  facet normal -0.425091 0 0.905151
    outer loop
      vertex 277.522 -95.6731 46.3655
      vertex 299.602 -79.504 56.7348
      vertex 299.602 -79.404 56.7348
    endloop
  endfacet
  facet normal -0.265929 0 0.963993
    outer loop
      vertex 424.008 -111.051 100.932
      vertex 461.373 -116.305 111.239
      vertex 461.373 -116.205 111.239
    endloop
  endfacet
  facet normal -0.679797 0 -0.733401
    outer loop
      vertex 369.242 -136.997 -205.245
      vertex 248.408 -161.585 -93.2416
      vertex 248.408 -161.485 -93.2416
    endloop
  endfacet
  facet normal -0.593199 0.805056 3.12959e-11
    outer loop
      vertex 277.522 -95.6731 46.3655
      vertex 440.595 24.4859 11.536
      vertex 444.423 27.3066 3.84624
    endloop
  endfacet
  facet normal 0 0.994072 -0.108727
    outer loop
      vertex 425.056 12.9624 -127.401
      vertex 424.956 12.9624 -127.401
      vertex 444.523 27.3066 3.74624
    endloop
  endfacet
  facet normal -0.356915 -0.107075 0.92798
    outer loop
      vertex 424.008 -111.151 100.932
      vertex 277.522 -95.7731 46.3655
      vertex 362.511 -239.012 62.5259
    endloop
  endfacet
  facet normal -0.265929 0 0.963993
    outer loop
      vertex 461.373 -116.305 111.239
      vertex 424.008 -111.051 100.932
      vertex 424.008 -111.151 100.932
    endloop
  endfacet
  facet normal -0.425091 0 0.905151
    outer loop
      vertex 277.522 -95.6731 46.3655
      vertex 277.522 -95.7731 46.3655
      vertex 299.602 -79.504 56.7348
    endloop
  endfacet
  facet normal 0 1 0
    outer loop
      vertex 444.523 27.3066 3.84624
      vertex 444.423 27.3066 3.74624
      vertex 444.423 27.3066 3.84624
    endloop
  endfacet
  facet normal 0 0.994072 -0.108727
    outer loop
      vertex 444.523 27.3066 3.74624
      vertex 424.956 12.9624 -127.401
      vertex 444.423 27.3066 3.74624
    endloop
  endfacet
  facet normal 0.428571 0.285714 -0.857143
    outer loop
      vertex 425.056 12.9624 -127.401
      vertex 443.719 -141.003 -169.392
      vertex 407.266 -148.633 -190.161
    endloop
  endfacet
  facet normal 0.973329 0.162221 -0.162221
    outer loop
      vertex 425.056 12.9624 -127.401
      vertex 487.513 -234.19 0.189274
      vertex 465.668 -195.355 -92.0455
    endloop
  endfacet
  facet normal -0.148556 0.557086 0.817059
    outer loop
      vertex 440.595 24.4859 11.536
      vertex 299.602 -79.404 56.7348
      vertex 462.332 -115.752 111.105
    endloop
  endfacet
  facet normal -0.759642 0 0.650341
    outer loop
      vertex 277.522 -95.6731 46.3655
      vertex 260.757 -209.51 26.7823
      vertex 277.522 -95.7731 46.3655
    endloop
  endfacet
  facet normal 0 1 -0
    outer loop
      vertex 444.523 27.3066 3.74624
      vertex 444.423 27.3066 3.74624
      vertex 444.523 27.3066 3.84624
    endloop
  endfacet
  facet normal 0 0.711278 -0.70291
    outer loop
      vertex 424.956 12.9624 -127.401
      vertex 425.056 12.9624 -127.401
      vertex 382.476 -18.3387 -159.075
    endloop
  endfacet
  facet normal -0.334765 0 0.942302
    outer loop
      vertex 424.008 -111.051 100.932
      vertex 299.602 -79.504 56.7348
      vertex 424.008 -111.151 100.932
    endloop
  endfacet
  facet normal -0.479402 0.479402 -0.735083
    outer loop
      vertex 320.022 -64.3574 -148.356
      vertex 382.476 -18.3387 -159.075
      vertex 362.802 -89.4351 -192.611
    endloop
  endfacet
  facet normal 0 0.578922 0.815383
    outer loop
      vertex 440.695 24.4859 11.536
      vertex 462.332 -115.752 111.105
      vertex 462.432 -115.752 111.105
    endloop
  endfacet
  facet normal 0.973329 0.162221 -0.162221
    outer loop
      vertex 487.513 -234.19 0.189274
      vertex 425.056 12.9624 -127.401
      vertex 484.589 -125.988 90.8453
    endloop
  endfacet
  facet normal 0 -0.902861 -0.429934
    outer loop
      vertex 465.568 -195.455 -92.0455
      vertex 407.266 -148.733 -190.161
      vertex 465.668 -195.455 -92.0455
    endloop
  endfacet
  facet normal 0.378298 -0.588464 0.714563
    outer loop
      vertex 487.513 -234.29 0.289274
      vertex 462.432 -115.852 111.105
      vertex 389.599 -204.177 76.9252
    endloop
  endfacet
  facet normal 0.999635 0.0270172 -0
    outer loop
      vertex 487.513 -234.19 0.189274
      vertex 484.589 -125.988 90.9453
      vertex 487.513 -234.19 0.289274
    endloop
  endfacet
  facet normal 0 -0.921635 -0.388057
    outer loop
      vertex 487.413 -234.29 0.189274
      vertex 465.568 -195.455 -92.0455
      vertex 465.668 -195.455 -92.0455
    endloop
  endfacet
  facet normal 0 -0.382015 0.924156
    outer loop
      vertex 362.611 -239.012 62.5259
      vertex 389.499 -204.177 76.9252
      vertex 362.511 -239.012 62.5259
    endloop
  endfacet
  facet normal -0.148556 0.557086 0.817059
    outer loop
      vertex 424.008 -111.051 100.932
      vertex 461.373 -116.205 111.239
      vertex 462.332 -115.752 111.105
    endloop
  endfacet
  facet normal -1 0 0
    outer loop
      vertex 248.408 -161.485 -93.2416
      vertex 248.408 -161.585 -93.2416
      vertex 248.408 -161.485 -93.1416
    endloop
  endfacet
  facet normal -0.356915 -0.107075 0.92798
    outer loop
      vertex 299.602 -79.504 56.7348
      vertex 277.522 -95.7731 46.3655
      vertex 424.008 -111.151 100.932
    endloop
  endfacet
  facet normal 0 0.578922 0.815383
    outer loop
      vertex 440.695 24.4859 11.536
      vertex 440.595 24.4859 11.536
      vertex 462.332 -115.752 111.105
    endloop
  endfacet
  facet normal -0.334765 0 0.942302
    outer loop
      vertex 299.602 -79.504 56.7348
      vertex 424.008 -111.051 100.932
      vertex 299.602 -79.404 56.7348
    endloop
  endfacet
  facet normal 0.999635 0.0270172 0
    outer loop
      vertex 487.513 -234.19 0.189274
      vertex 484.589 -125.988 90.8453
      vertex 484.589 -125.988 90.9453
    endloop
  endfacet
  facet normal 0 0.256723 -0.966485
    outer loop
      vertex 369.242 -136.997 -205.245
      vertex 362.902 -89.4351 -192.611
      vertex 369.342 -136.997 -205.245
    endloop
  endfacet
  facet normal 0.99948 0 0.0322413
    outer loop
      vertex 487.513 -234.29 0.289274
      vertex 484.589 -125.988 90.9453
      vertex 484.589 -126.088 90.9453
    endloop
  endfacet
  facet normal -0.687141 0.098163 -0.719862
    outer loop
      vertex 369.242 -136.997 -205.245
      vertex 320.022 -64.3574 -148.356
      vertex 362.802 -89.4351 -192.611
    endloop
  endfacet
  facet normal -0.593199 0.805056 1.90369e-13
    outer loop
      vertex 277.522 -95.6731 46.3655
      vertex 444.423 27.3066 3.84624
      vertex 254.458 -112.667 -92.2604
    endloop
  endfacet
  facet normal -0.968493 -0.249041 0
    outer loop
      vertex 248.408 -161.585 -93.2416
      vertex 260.757 -209.61 26.7823
      vertex 248.408 -161.585 -93.1416
    endloop
  endfacet
  facet normal -0.142134 -0.92387 -0.355335
    outer loop
      vertex 465.568 -195.455 -92.0455
      vertex 369.242 -137.097 -205.245
      vertex 407.166 -148.733 -190.161
    endloop
  endfacet
  facet normal 0.495051 0 -0.868864
    outer loop
      vertex 443.719 -141.003 -169.392
      vertex 407.266 -148.733 -190.161
      vertex 407.266 -148.633 -190.161
    endloop
  endfacet
  facet normal 0.9675 0.252869 0
    outer loop
      vertex 484.589 -125.988 90.8453
      vertex 444.523 27.3066 3.74624
      vertex 444.523 27.3066 3.84624
    endloop
  endfacet
  facet normal 0.973329 0.162221 -0.162221
    outer loop
      vertex 484.589 -125.988 90.8453
      vertex 425.056 12.9624 -127.401
      vertex 444.523 27.3066 3.74624
    endloop
  endfacet
  facet normal 0.138958 -0 0.990298
    outer loop
      vertex 462.432 -115.852 111.105
      vertex 462.432 -115.752 111.105
      vertex 461.473 -116.305 111.239
    endloop
  endfacet
  facet normal 0.378298 -0.588464 0.714563
    outer loop
      vertex 462.432 -115.852 111.105
      vertex 487.513 -234.29 0.289274
      vertex 484.589 -126.088 90.9453
    endloop
  endfacet
  facet normal -0.968493 -0.249041 0
    outer loop
      vertex 248.408 -161.585 -93.2416
      vertex 260.757 -209.61 26.6823
      vertex 260.757 -209.61 26.7823
    endloop
  endfacet
  facet normal 0.378298 -0.588464 0.714563
    outer loop
      vertex 362.611 -239.012 62.5259
      vertex 487.513 -234.29 0.289274
      vertex 389.599 -204.177 76.9252
    endloop
  endfacet
  facet normal -0 0.284702 0.958616
    outer loop
      vertex 462.332 -115.752 111.105
      vertex 461.373 -116.205 111.239
      vertex 462.432 -115.752 111.105
    endloop
  endfacet
  facet normal -0.142134 -0.92387 -0.355335
    outer loop
      vertex 465.568 -195.455 -92.0455
      vertex 487.413 -234.29 0.189274
      vertex 362.511 -239.012 62.4259
    endloop
  endfacet
  facet normal 0.495051 0 -0.868864
    outer loop
      vertex 443.719 -141.003 -169.392
      vertex 443.719 -141.103 -169.392
      vertex 407.266 -148.733 -190.161
    endloop
  endfacet
  facet normal -0.687141 0.098163 -0.719862
    outer loop
      vertex 369.242 -136.997 -205.245
      vertex 254.458 -112.667 -92.3604
      vertex 320.022 -64.3574 -148.356
    endloop
  endfacet
  facet normal -0.142134 -0.92387 -0.355335
    outer loop
      vertex 260.757 -209.61 26.6823
      vertex 465.568 -195.455 -92.0455
      vertex 362.511 -239.012 62.4259
    endloop
  endfacet
  facet normal 0 -0.363751 0.931496
    outer loop
      vertex 461.373 -116.305 111.239
      vertex 389.499 -204.177 76.9252
      vertex 461.473 -116.305 111.239
    endloop
  endfacet
  facet normal -0.593199 0.805056 3.24884e-11
    outer loop
      vertex 440.595 24.4859 11.536
      vertex 277.522 -95.6731 46.3655
      vertex 299.602 -79.404 56.7348
    endloop
  endfacet
  facet normal -0.148556 0.557086 0.817059
    outer loop
      vertex 299.602 -79.404 56.7348
      vertex 424.008 -111.051 100.932
      vertex 462.332 -115.752 111.105
    endloop
  endfacet
  facet normal -0.593199 0.805056 -1.59136e-11
    outer loop
      vertex 254.458 -112.667 -92.3604
      vertex 382.476 -18.3387 -159.075
      vertex 320.022 -64.3574 -148.356
    endloop
  endfacet
  facet normal -0.142134 -0.92387 -0.355335
    outer loop
      vertex 465.568 -195.455 -92.0455
      vertex 260.757 -209.61 26.6823
      vertex 369.242 -137.097 -205.245
    endloop
  endfacet
  facet normal -0.593199 0.805056 -4.93153e-12
    outer loop
      vertex 424.956 12.9624 -127.401
      vertex 382.476 -18.3387 -159.075
      vertex 444.423 27.3066 3.74624
    endloop
  endfacet
  facet normal -0.593199 0.805056 -1.68992e-12
    outer loop
      vertex 382.476 -18.3387 -159.075
      vertex 254.458 -112.667 -92.3604
      vertex 444.423 27.3066 3.74624
    endloop
  endfacet
  facet normal -0.992406 0.123006 0
    outer loop
      vertex 254.458 -112.667 -92.3604
      vertex 248.408 -161.485 -93.2416
      vertex 248.408 -161.485 -93.1416
    endloop
  endfacet
  facet normal -0.687141 0.098163 -0.719862
    outer loop
      vertex 254.458 -112.667 -92.3604
      vertex 369.242 -136.997 -205.245
      vertex 248.408 -161.485 -93.2416
    endloop
  endfacet
  facet normal 0 0 -1
    outer loop
      vertex 369.242 -136.997 -205.245
      vertex 369.342 -136.997 -205.245
      vertex 369.242 -137.097 -205.245
    endloop
  endfacet
  facet normal 0 -0.791782 -0.610803
    outer loop
      vertex 407.266 -148.733 -190.161
      vertex 369.242 -137.097 -205.245
      vertex 369.342 -137.097 -205.245
    endloop
  endfacet
  facet normal -0.277595 -0.960698 -0
    outer loop
      vertex 260.757 -209.61 26.7823
      vertex 260.757 -209.61 26.6823
      vertex 362.511 -239.012 62.4259
    endloop
  endfacet
  facet normal 0.473879 -0.651584 -0.592349
    outer loop
      vertex 407.266 -148.733 -190.161
      vertex 443.719 -141.103 -169.392
      vertex 465.668 -195.455 -92.0455
    endloop
  endfacet
  facet normal 0 0.938832 0.344375
    outer loop
      vertex 440.595 24.4859 11.536
      vertex 444.523 27.3066 3.84624
      vertex 444.423 27.3066 3.84624
    endloop
  endfacet
  facet normal -0 0.938832 0.344375
    outer loop
      vertex 440.595 24.4859 11.536
      vertex 440.695 24.4859 11.536
      vertex 444.523 27.3066 3.84624
    endloop
  endfacet
  facet normal 0.672984 0 0.739657
    outer loop
      vertex 484.589 -125.988 90.9453
      vertex 462.432 -115.852 111.105
      vertex 484.589 -126.088 90.9453
    endloop
  endfacet
  facet normal 0.378298 -0.588464 0.714563
    outer loop
      vertex 462.432 -115.852 111.105
      vertex 461.473 -116.305 111.239
      vertex 389.599 -204.177 76.9252
    endloop
  endfacet
  facet normal 0.9675 0.252869 -0
    outer loop
      vertex 484.589 -125.988 90.8453
      vertex 444.523 27.3066 3.84624
      vertex 484.589 -125.988 90.9453
    endloop
  endfacet
  facet normal 0.700973 0.481919 0.52573
    outer loop
      vertex 444.523 27.3066 3.84624
      vertex 440.695 24.4859 11.536
      vertex 484.589 -125.988 90.9453
    endloop
  endfacet
  facet normal 0 -1 0
    outer loop
      vertex 362.511 -239.012 62.4259
      vertex 362.611 -239.012 62.5259
      vertex 362.511 -239.012 62.5259
    endloop
  endfacet
  facet normal -0.281265 -0.140633 0.949269
    outer loop
      vertex 389.499 -204.177 76.9252
      vertex 461.373 -116.305 111.239
      vertex 424.008 -111.151 100.932
    endloop
  endfacet
  facet normal -0.277595 -0.960698 0
    outer loop
      vertex 260.757 -209.61 26.7823
      vertex 362.511 -239.012 62.4259
      vertex 362.511 -239.012 62.5259
    endloop
  endfacet
  facet normal -0.759642 0 0.650341
    outer loop
      vertex 277.522 -95.7731 46.3655
      vertex 260.757 -209.51 26.7823
      vertex 260.757 -209.61 26.7823
    endloop
  endfacet
  facet normal 0.962013 0 -0.273004
    outer loop
      vertex 443.719 -141.103 -169.392
      vertex 443.719 -141.003 -169.392
      vertex 465.668 -195.355 -92.0455
    endloop
  endfacet
  facet normal 0.973329 0.162221 -0.162221
    outer loop
      vertex 443.719 -141.003 -169.392
      vertex 425.056 12.9624 -127.401
      vertex 465.668 -195.355 -92.0455
    endloop
  endfacet
  facet normal 0 0.426619 -0.904432
    outer loop
      vertex 362.902 -89.4351 -192.611
      vertex 382.476 -18.3387 -159.075
      vertex 382.576 -18.3387 -159.075
    endloop
  endfacet
  facet normal 0 0.711278 -0.70291
    outer loop
      vertex 382.476 -18.3387 -159.075
      vertex 425.056 12.9624 -127.401
      vertex 382.576 -18.3387 -159.075
    endloop
  endfacet
  facet normal -0.99474 0 0.102433
    outer loop
      vertex 260.757 -209.61 26.7823
      vertex 260.757 -209.51 26.7823
      vertex 248.408 -161.485 -93.1416
    endloop
  endfacet
  facet normal -0.981691 0.118993 0.148741
    outer loop
      vertex 260.757 -209.51 26.7823
      vertex 277.522 -95.6731 46.3655
      vertex 248.408 -161.485 -93.1416
    endloop
  endfacet
  facet normal 0.428571 0.285714 -0.857143
    outer loop
      vertex 369.342 -136.997 -205.245
      vertex 362.902 -89.4351 -192.611
      vertex 407.266 -148.633 -190.161
    endloop
  endfacet
  facet normal 0.369569 0 -0.929203
    outer loop
      vertex 407.266 -148.733 -190.161
      vertex 369.342 -136.997 -205.245
      vertex 407.266 -148.633 -190.161
    endloop
  endfacet
  facet normal 0.962013 0 -0.273004
    outer loop
      vertex 443.719 -141.103 -169.392
      vertex 465.668 -195.355 -92.0455
      vertex 465.668 -195.455 -92.0455
    endloop
  endfacet
  facet normal 0.97308 0 -0.230466
    outer loop
      vertex 465.668 -195.355 -92.0455
      vertex 487.513 -234.19 0.189274
      vertex 465.668 -195.455 -92.0455
    endloop
  endfacet
  facet normal -0.142134 -0.92387 -0.355335
    outer loop
      vertex 260.757 -209.61 26.6823
      vertex 248.408 -161.585 -93.2416
      vertex 369.242 -137.097 -205.245
    endloop
  endfacet
  facet normal -0.679797 0 -0.733401
    outer loop
      vertex 248.408 -161.585 -93.2416
      vertex 369.242 -136.997 -205.245
      vertex 369.242 -137.097 -205.245
    endloop
  endfacet
  facet normal 0.0377737 -0.999286 0
    outer loop
      vertex 487.513 -234.29 0.289274
      vertex 362.611 -239.012 62.4259
      vertex 487.513 -234.29 0.189274
    endloop
  endfacet
  facet normal 0 -0.997135 -0.0756447
    outer loop
      vertex 362.611 -239.012 62.4259
      vertex 487.413 -234.29 0.189274
      vertex 487.513 -234.29 0.189274
    endloop
  endfacet
  facet normal 0 -1 -0
    outer loop
      vertex 362.611 -239.012 62.5259
      vertex 362.511 -239.012 62.4259
      vertex 362.611 -239.012 62.4259
    endloop
  endfacet
  facet normal 0 -0.997135 -0.0756447
    outer loop
      vertex 362.511 -239.012 62.4259
      vertex 487.413 -234.29 0.189274
      vertex 362.611 -239.012 62.4259
    endloop
  endfacet
  facet normal -0.593199 0.805056 0
    outer loop
      vertex 444.423 27.3066 3.74624
      vertex 254.458 -112.667 -92.3604
      vertex 444.423 27.3066 3.84624
    endloop
  endfacet
  facet normal -0.593199 0.805056 0
    outer loop
      vertex 444.423 27.3066 3.84624
      vertex 254.458 -112.667 -92.3604
      vertex 254.458 -112.667 -92.2604
    endloop
  endfacet
  facet normal 0.672984 -0 0.739657
    outer loop
      vertex 462.432 -115.852 111.105
      vertex 484.589 -125.988 90.9453
      vertex 462.432 -115.752 111.105
    endloop
  endfacet
  facet normal 0.700973 0.481919 0.52573
    outer loop
      vertex 484.589 -125.988 90.9453
      vertex 440.695 24.4859 11.536
      vertex 462.432 -115.752 111.105
    endloop
  endfacet
  facet normal -0 0 1
    outer loop
      vertex 461.373 -116.205 111.239
      vertex 461.473 -116.305 111.239
      vertex 461.473 -116.205 111.239
    endloop
  endfacet
  facet normal 0 0 1
    outer loop
      vertex 461.373 -116.205 111.239
      vertex 461.373 -116.305 111.239
      vertex 461.473 -116.305 111.239
    endloop
  endfacet
  facet normal -0.356915 -0.107075 0.92798
    outer loop
      vertex 277.522 -95.7731 46.3655
      vertex 260.757 -209.61 26.7823
      vertex 362.511 -239.012 62.5259
    endloop
  endfacet
  facet normal -0.356915 -0.107075 0.92798
    outer loop
      vertex 389.499 -204.177 76.9252
      vertex 424.008 -111.151 100.932
      vertex 362.511 -239.012 62.5259
    endloop
  endfacet
  facet normal 0 0.426619 -0.904432
    outer loop
      vertex 382.476 -18.3387 -159.075
      vertex 362.902 -89.4351 -192.611
      vertex 362.802 -89.4351 -192.611
    endloop
  endfacet
  facet normal 0 0.256723 -0.966485
    outer loop
      vertex 362.902 -89.4351 -192.611
      vertex 369.242 -136.997 -205.245
      vertex 362.802 -89.4351 -192.611
    endloop
  endfacet
  facet normal -0.992406 0.123006 0
    outer loop
      vertex 254.458 -112.667 -92.3604
      vertex 248.408 -161.485 -93.1416
      vertex 254.458 -112.667 -92.2604
    endloop
  endfacet
  facet normal -0.981691 0.118993 0.148741
    outer loop
      vertex 248.408 -161.485 -93.1416
      vertex 277.522 -95.6731 46.3655
      vertex 254.458 -112.667 -92.2604
    endloop
  endfacet
  facet normal -0.99474 0 0.102433
    outer loop
      vertex 260.757 -209.61 26.7823
      vertex 248.408 -161.485 -93.1416
      vertex 248.408 -161.585 -93.1416
    endloop
  endfacet
  facet normal -1 -0 0
    outer loop
      vertex 248.408 -161.485 -93.1416
      vertex 248.408 -161.585 -93.2416
      vertex 248.408 -161.585 -93.1416
    endloop
  endfacet
  facet normal 0.428571 0.285714 -0.857143
    outer loop
      vertex 362.902 -89.4351 -192.611
      vertex 382.576 -18.3387 -159.075
      vertex 407.266 -148.633 -190.161
    endloop
  endfacet
  facet normal 0.428571 0.285714 -0.857143
    outer loop
      vertex 382.576 -18.3387 -159.075
      vertex 425.056 12.9624 -127.401
      vertex 407.266 -148.633 -190.161
    endloop
  endfacet
  facet normal 0 0 -1
    outer loop
      vertex 369.242 -137.097 -205.245
      vertex 369.342 -136.997 -205.245
      vertex 369.342 -137.097 -205.245
    endloop
  endfacet
  facet normal 0.369569 0 -0.929203
    outer loop
      vertex 369.342 -136.997 -205.245
      vertex 407.266 -148.733 -190.161
      vertex 369.342 -137.097 -205.245
    endloop
  endfacet
  facet normal 0 -0.791782 -0.610803
    outer loop
      vertex 369.242 -137.097 -205.245
      vertex 407.266 -148.733 -190.161
      vertex 407.166 -148.733 -190.161
    endloop
  endfacet
  facet normal -0 -0.902861 -0.429934
    outer loop
      vertex 407.266 -148.733 -190.161
      vertex 465.568 -195.455 -92.0455
      vertex 407.166 -148.733 -190.161
    endloop
  endfacet
  facet normal 0.99948 0 0.0322413
    outer loop
      vertex 484.589 -125.988 90.9453
      vertex 487.513 -234.29 0.289274
      vertex 487.513 -234.19 0.289274
    endloop
  endfacet
  facet normal 1 -0 0
    outer loop
      vertex 487.513 -234.29 0.289274
      vertex 487.513 -234.19 0.189274
      vertex 487.513 -234.19 0.289274
    endloop
  endfacet
  facet normal 1 0 0
    outer loop
      vertex 487.513 -234.19 0.189274
      vertex 487.513 -234.29 0.289274
      vertex 487.513 -234.29 0.189274
    endloop
  endfacet
  facet normal 0.0377737 -0.999286 0
    outer loop
      vertex 487.513 -234.29 0.289274
      vertex 362.611 -239.012 62.5259
      vertex 362.611 -239.012 62.4259
    endloop
  endfacet
  facet normal 0 -0.363751 0.931496
    outer loop
      vertex 461.473 -116.305 111.239
      vertex 389.499 -204.177 76.9252
      vertex 389.599 -204.177 76.9252
    endloop
  endfacet
  facet normal 0 -0.382015 0.924156
    outer loop
      vertex 389.499 -204.177 76.9252
      vertex 362.611 -239.012 62.5259
      vertex 389.599 -204.177 76.9252
    endloop
  endfacet
  facet normal 0.138958 -0 0.990298
    outer loop
      vertex 461.473 -116.305 111.239
      vertex 462.432 -115.752 111.105
      vertex 461.473 -116.205 111.239
    endloop
  endfacet
  facet normal 0 0.284702 0.958616
    outer loop
      vertex 462.432 -115.752 111.105
      vertex 461.373 -116.205 111.239
      vertex 461.473 -116.205 111.239
    endloop
  endfacet
  facet normal 0 -0.921635 -0.388057
    outer loop
      vertex 487.413 -234.29 0.189274
      vertex 465.668 -195.455 -92.0455
      vertex 487.513 -234.29 0.189274
    endloop
  endfacet
  facet normal 0.97308 0 -0.230466
    outer loop
      vertex 465.668 -195.455 -92.0455
      vertex 487.513 -234.19 0.189274
      vertex 487.513 -234.29 0.189274
    endloop
  endfacet
endsolid OpenSCAD_Model
