solid OpenSCAD_Model
  facet normal -0.0247986 0.999692 0
    outer loop
      vertex -223.956 193.467 119.178
      vertex -223.956 193.467 119.278
      vertex -157.438 195.117 206.627
    endloop
  endfacet
  facet normal -0.358974 0.897436 0.25641
    outer loop
      vertex -264.071 167.185 155.103
      vertex -223.956 193.467 119.278
      vertex -225.337 193.038 118.846
    endloop
  endfacet
  facet normal -0 -0.151084 -0.988521
    outer loop
      vertex -228.974 102.212 36.4086
      vertex -174.144 -31.3636 56.8241
      vertex -229.074 102.212 36.4086
    endloop
  endfacet
  facet normal 0.737568 -0 0.675273
    outer loop
      vertex 119.072 78.5679 290.835
      vertex 119.072 78.6679 290.835
      vertex 107.382 133.225 303.604
    endloop
  endfacet
  facet normal -0.956352 0 0.292219
    outer loop
      vertex -226.656 -40.2681 310.589
      vertex -275.774 150.723 149.838
      vertex -275.774 150.623 149.838
    endloop
  endfacet
  facet normal 0 -0.0933407 0.995634
    outer loop
      vertex 8.65932 95.6317 394.222
      vertex 8.55932 95.6317 394.222
      vertex -105.672 -70.669 378.631
    endloop
  endfacet
  facet normal 0.994646 0 -0.10334
    outer loop
      vertex 119.072 78.6679 290.735
      vertex 115.786 27.0096 259.102
      vertex 115.786 27.1096 259.102
    endloop
  endfacet
  facet normal -0.358974 0.897436 0.25641
    outer loop
      vertex -223.956 193.467 119.278
      vertex -139.323 175.595 300.315
      vertex -103.768 185.441 315.631
    endloop
  endfacet
  facet normal 0.569803 -0.455842 0.683763
    outer loop
      vertex 119.072 78.5679 290.835
      vertex 8.65932 95.6317 394.222
      vertex -105.672 -70.669 378.631
    endloop
  endfacet
  facet normal 0.127123 0.991561 0.0254246
    outer loop
      vertex -157.338 195.117 206.627
      vertex -103.668 185.441 315.631
      vertex -30.9577 176.687 293.513
    endloop
  endfacet
  facet normal 0.689312 -0 0.724465
    outer loop
      vertex 107.382 133.225 303.604
      vertex 107.382 133.325 303.604
      vertex 85.8377 146.097 324.103
    endloop
  endfacet
  facet normal 0.306147 0.91844 -0.250484
    outer loop
      vertex -7.53928 127.975 143.428
      vertex -130.651 153.254 85.6475
      vertex -223.856 193.467 119.178
    endloop
  endfacet
  facet normal 0.569803 -0.455842 0.683763
    outer loop
      vertex 119.072 78.5679 290.835
      vertex -105.672 -70.669 378.631
      vertex 115.786 27.0096 259.202
    endloop
  endfacet
  facet normal 0.771069 0.296565 -0.563473
    outer loop
      vertex -7.53928 127.975 143.428
      vertex 119.072 78.6679 290.735
      vertex 55.5742 11.6191 168.554
    endloop
  endfacet
  facet normal 0.977881 0.20916 0
    outer loop
      vertex 119.072 78.6679 290.835
      vertex 119.072 78.6679 290.735
      vertex 107.382 133.325 303.604
    endloop
  endfacet
  facet normal 1 0 0
    outer loop
      vertex 119.072 78.6679 290.835
      vertex 119.072 78.5679 290.835
      vertex 119.072 78.6679 290.735
    endloop
  endfacet
  facet normal 0 0.677014 -0.73597
    outer loop
      vertex -250.319 135.592 65.9015
      vertex -225.337 193.038 118.746
      vertex -225.237 193.038 118.746
    endloop
  endfacet
  facet normal 0.144307 0.989533 0
    outer loop
      vertex -30.9577 176.687 293.413
      vertex -157.338 195.117 206.527
      vertex -157.338 195.117 206.627
    endloop
  endfacet
  facet normal 0.431124 0.0391931 -0.901441
    outer loop
      vertex -7.53928 127.975 143.428
      vertex -228.974 102.312 36.4086
      vertex -130.651 153.254 85.6475
    endloop
  endfacet
  facet normal 0 0 1
    outer loop
      vertex 8.55932 95.6317 394.222
      vertex 8.65932 95.6317 394.222
      vertex 8.65932 95.7317 394.222
    endloop
  endfacet
  facet normal 0.483686 -0.875242 0
    outer loop
      vertex -124.171 -113.018 325.715
      vertex 107.92 15.2424 242.144
      vertex 107.92 15.2424 242.244
    endloop
  endfacet
  facet normal 0.541275 -0.787309 0.295241
    outer loop
      vertex -103.535 -82.6511 368.862
      vertex -124.171 -113.018 325.715
      vertex 107.92 15.2424 242.244
    endloop
  endfacet
  facet normal 0.569803 -0.455842 0.683763
    outer loop
      vertex -105.672 -70.669 378.631
      vertex -103.535 -82.6511 368.862
      vertex 115.786 27.0096 259.202
    endloop
  endfacet
  facet normal 0.40161 -0.883541 -0.240966
    outer loop
      vertex 107.92 15.2424 242.144
      vertex -124.171 -113.018 325.615
      vertex 55.5742 11.5191 168.554
    endloop
  endfacet
  facet normal 0 0 -1
    outer loop
      vertex -229.074 102.312 36.4086
      vertex -228.974 102.312 36.4086
      vertex -228.974 102.212 36.4086
    endloop
  endfacet
  facet normal 0 -0.954907 -0.296904
    outer loop
      vertex -180.942 -124.856 274.4
      vertex -164.384 -63.2192 76.1644
      vertex -164.284 -63.2192 76.1644
    endloop
  endfacet
  facet normal 0.814879 0 -0.579631
    outer loop
      vertex 107.92 15.2424 242.144
      vertex 55.5742 11.5191 168.554
      vertex 55.5742 11.6191 168.554
    endloop
  endfacet
  facet normal 0.441597 0 -0.897213
    outer loop
      vertex 55.5742 11.5191 168.554
      vertex -151.552 -54.8261 66.6087
      vertex -151.552 -54.7261 66.6087
    endloop
  endfacet
  facet normal 0.306147 0.91844 -0.250484
    outer loop
      vertex -7.53928 127.975 143.428
      vertex -223.856 193.467 119.178
      vertex 85.8377 146.097 324.003
    endloop
  endfacet
  facet normal 0.737568 -0 0.675273
    outer loop
      vertex 107.382 133.225 303.604
      vertex 119.072 78.6679 290.835
      vertex 107.382 133.325 303.604
    endloop
  endfacet
  facet normal -0.436436 0.218218 0.872872
    outer loop
      vertex -139.323 175.595 300.315
      vertex -226.656 -40.1681 310.589
      vertex 22.8213 167.474 383.417
    endloop
  endfacet
  facet normal 0 0 -1
    outer loop
      vertex -229.074 102.312 36.4086
      vertex -228.974 102.212 36.4086
      vertex -229.074 102.212 36.4086
    endloop
  endfacet
  facet normal 0.681202 -0.0252297 0.731661
    outer loop
      vertex 52.3728 164.304 355.891
      vertex 107.382 133.225 303.604
      vertex 85.8377 145.997 324.103
    endloop
  endfacet
  facet normal 0.681202 -0.0252297 0.731661
    outer loop
      vertex 119.072 78.5679 290.835
      vertex 107.382 133.225 303.604
      vertex 22.9213 167.374 383.417
    endloop
  endfacet
  facet normal 0 0.996083 0.0884179
    outer loop
      vertex -157.438 195.117 206.627
      vertex -103.768 185.441 315.631
      vertex -103.668 185.441 315.631
    endloop
  endfacet
  facet normal 0 -0.631893 0.775056
    outer loop
      vertex -103.535 -82.6511 368.862
      vertex -105.672 -70.669 378.631
      vertex -103.635 -82.6511 368.862
    endloop
  endfacet
  facet normal 0.204121 -0.978946 0
    outer loop
      vertex -180.942 -124.856 274.4
      vertex -124.171 -113.018 325.615
      vertex -124.171 -113.018 325.715
    endloop
  endfacet
  facet normal 0.483686 -0.875242 0
    outer loop
      vertex -124.171 -113.018 325.615
      vertex 107.92 15.2424 242.144
      vertex -124.171 -113.018 325.715
    endloop
  endfacet
  facet normal 0.40161 -0.883541 -0.240966
    outer loop
      vertex -151.552 -54.8261 66.6087
      vertex 55.5742 11.5191 168.554
      vertex -163.838 -62.7131 75.0519
    endloop
  endfacet
  facet normal 0.397432 0 -0.917632
    outer loop
      vertex -151.552 -54.7261 66.6087
      vertex -151.552 -54.8261 66.6087
      vertex -174.144 -31.3636 56.8241
    endloop
  endfacet
  facet normal 0.90715 0 -0.420807
    outer loop
      vertex 115.786 27.0096 259.102
      vertex 107.92 15.2424 242.144
      vertex 107.92 15.3424 242.144
    endloop
  endfacet
  facet normal 0.997974 -0.0636159 0
    outer loop
      vertex 119.072 78.5679 290.835
      vertex 115.786 27.0096 259.102
      vertex 119.072 78.5679 290.735
    endloop
  endfacet
  facet normal 0.40161 -0.883541 -0.240966
    outer loop
      vertex -180.942 -124.856 274.4
      vertex -164.284 -63.2192 76.1644
      vertex -163.838 -62.7131 75.0519
    endloop
  endfacet
  facet normal -0.210866 -0.542228 -0.813342
    outer loop
      vertex -163.938 -62.7131 75.0519
      vertex -164.865 -61.1937 74.2793
      vertex -151.652 -54.8261 66.6087
    endloop
  endfacet
  facet normal 0 -0.910254 -0.414051
    outer loop
      vertex -164.284 -63.2192 76.1644
      vertex -163.938 -62.7131 75.0519
      vertex -163.838 -62.7131 75.0519
    endloop
  endfacet
  facet normal 0 -0.730764 -0.68263
    outer loop
      vertex -163.938 -62.7131 75.0519
      vertex -151.552 -54.8261 66.6087
      vertex -163.838 -62.7131 75.0519
    endloop
  endfacet
  facet normal 0 0.663242 -0.748405
    outer loop
      vertex -250.319 135.592 65.9015
      vertex -229.074 102.312 36.4086
      vertex -250.419 135.592 65.9015
    endloop
  endfacet
  facet normal 0.0231496 0.671339 -0.740788
    outer loop
      vertex -130.651 153.254 85.6475
      vertex -228.974 102.312 36.4086
      vertex -223.856 193.467 119.178
    endloop
  endfacet
  facet normal 0.431124 0.0391931 -0.901441
    outer loop
      vertex -228.974 102.312 36.4086
      vertex -151.552 -54.7261 66.6087
      vertex -174.144 -31.2636 56.8241
    endloop
  endfacet
  facet normal 0.441597 0 -0.897213
    outer loop
      vertex 55.5742 11.5191 168.554
      vertex -151.552 -54.7261 66.6087
      vertex 55.5742 11.6191 168.554
    endloop
  endfacet
  facet normal 0.977881 0.20916 0
    outer loop
      vertex 107.382 133.325 303.604
      vertex 119.072 78.6679 290.735
      vertex 107.382 133.325 303.504
    endloop
  endfacet
  facet normal 0.771069 0.296565 -0.563473
    outer loop
      vertex 119.072 78.6679 290.735
      vertex -7.53928 127.975 143.428
      vertex 107.382 133.325 303.504
    endloop
  endfacet
  facet normal -0.895533 -0.398015 -0.199007
    outer loop
      vertex -229.074 102.212 36.4086
      vertex -275.774 150.623 149.738
      vertex -250.419 135.492 65.9015
    endloop
  endfacet
  facet normal -0.77193 0 0.635707
    outer loop
      vertex -226.656 -40.1681 310.589
      vertex -223.114 -50.3876 314.89
      vertex -223.114 -50.2876 314.89
    endloop
  endfacet
  facet normal 0 0.709516 -0.704689
    outer loop
      vertex -223.956 193.467 119.178
      vertex -223.856 193.467 119.178
      vertex -225.337 193.038 118.746
    endloop
  endfacet
  facet normal -0.727013 0.323117 0.605844
    outer loop
      vertex -275.774 150.723 149.838
      vertex -139.323 175.595 300.315
      vertex -264.071 167.185 155.103
    endloop
  endfacet
  facet normal -0.727013 0.323117 0.605844
    outer loop
      vertex -226.656 -40.1681 310.589
      vertex -139.323 175.595 300.315
      vertex -275.774 150.723 149.838
    endloop
  endfacet
  facet normal -0.870654 -0.491895 -0
    outer loop
      vertex -223.114 -50.3876 314.89
      vertex -223.114 -50.3876 314.79
      vertex -181.042 -124.856 274.5
    endloop
  endfacet
  facet normal -0.956352 0 0.292219
    outer loop
      vertex -226.656 -40.2681 310.589
      vertex -226.656 -40.1681 310.589
      vertex -275.774 150.723 149.838
    endloop
  endfacet
  facet normal -0.457164 -0.609551 0.647648
    outer loop
      vertex -124.271 -113.018 325.715
      vertex -223.114 -50.3876 314.89
      vertex -181.042 -124.856 274.5
    endloop
  endfacet
  facet normal -0.477331 0 0.878723
    outer loop
      vertex -105.772 -70.569 378.631
      vertex -223.114 -50.3876 314.89
      vertex -105.772 -70.669 378.631
    endloop
  endfacet
  facet normal -0.457164 -0.609551 0.647648
    outer loop
      vertex -223.114 -50.3876 314.89
      vertex -103.635 -82.6511 368.862
      vertex -105.772 -70.669 378.631
    endloop
  endfacet
  facet normal 0.204121 -0.978946 0
    outer loop
      vertex -180.942 -124.856 274.4
      vertex -124.171 -113.018 325.715
      vertex -180.942 -124.856 274.5
    endloop
  endfacet
  facet normal 0 -0.817768 0.575548
    outer loop
      vertex -124.171 -113.018 325.715
      vertex -103.535 -82.6511 368.862
      vertex -124.271 -113.018 325.715
    endloop
  endfacet
  facet normal 0.431124 0.0391931 -0.901441
    outer loop
      vertex -151.552 -54.7261 66.6087
      vertex -228.974 102.312 36.4086
      vertex 55.5742 11.6191 168.554
    endloop
  endfacet
  facet normal 0.431124 0.0391931 -0.901441
    outer loop
      vertex -228.974 102.312 36.4086
      vertex -7.53928 127.975 143.428
      vertex 55.5742 11.6191 168.554
    endloop
  endfacet
  facet normal 0.831349 -0.555751 0
    outer loop
      vertex 107.92 15.2424 242.144
      vertex 115.786 27.0096 259.102
      vertex 115.786 27.0096 259.202
    endloop
  endfacet
  facet normal 0.997974 -0.0636159 0
    outer loop
      vertex 115.786 27.0096 259.102
      vertex 119.072 78.5679 290.835
      vertex 115.786 27.0096 259.202
    endloop
  endfacet
  facet normal 0.994646 0 -0.10334
    outer loop
      vertex 115.786 27.0096 259.102
      vertex 119.072 78.6679 290.735
      vertex 119.072 78.5679 290.735
    endloop
  endfacet
  facet normal 1 0 0
    outer loop
      vertex 119.072 78.6679 290.735
      vertex 119.072 78.5679 290.835
      vertex 119.072 78.5679 290.735
    endloop
  endfacet
  facet normal -0 -0.910254 -0.414051
    outer loop
      vertex -164.284 -63.2192 76.1644
      vertex -164.384 -63.2192 76.1644
      vertex -163.938 -62.7131 75.0519
    endloop
  endfacet
  facet normal -0 -0.384902 -0.922958
    outer loop
      vertex -174.144 -31.3636 56.8241
      vertex -151.552 -54.8261 66.6087
      vertex -174.244 -31.3636 56.8241
    endloop
  endfacet
  facet normal -0.587255 -0.6218 -0.518166
    outer loop
      vertex -163.938 -62.7131 75.0519
      vertex -164.384 -63.2192 76.1644
      vertex -164.865 -61.1937 74.2793
    endloop
  endfacet
  facet normal -0 -0.730764 -0.68263
    outer loop
      vertex -151.552 -54.8261 66.6087
      vertex -163.938 -62.7131 75.0519
      vertex -151.652 -54.8261 66.6087
    endloop
  endfacet
  facet normal 0.509952 0.860203 0
    outer loop
      vertex 107.382 133.325 303.604
      vertex 107.382 133.325 303.504
      vertex 85.8377 146.097 324.103
    endloop
  endfacet
  facet normal -0.358974 0.897436 0.25641
    outer loop
      vertex -223.956 193.467 119.278
      vertex -103.768 185.441 315.631
      vertex -157.438 195.117 206.627
    endloop
  endfacet
  facet normal -0.436436 0.218218 0.872872
    outer loop
      vertex -139.323 175.595 300.315
      vertex 22.8213 167.474 383.417
      vertex -103.768 185.441 315.631
    endloop
  endfacet
  facet normal 0.68871 -0 0.725036
    outer loop
      vertex 52.3728 164.304 355.891
      vertex 85.8377 146.097 324.103
      vertex 52.3728 164.404 355.891
    endloop
  endfacet
  facet normal -0.436436 0.218218 0.872872
    outer loop
      vertex -226.656 -40.1681 310.589
      vertex -105.772 -70.569 378.631
      vertex 22.8213 167.474 383.417
    endloop
  endfacet
  facet normal 0 0.148923 0.988849
    outer loop
      vertex 8.65932 95.7317 394.222
      vertex 22.8213 167.474 383.417
      vertex 8.55932 95.7317 394.222
    endloop
  endfacet
  facet normal 0.145823 0.989311 0
    outer loop
      vertex -30.9577 176.687 293.413
      vertex 52.3728 164.404 355.891
      vertex 52.3728 164.404 355.791
    endloop
  endfacet
  facet normal -0 0.996083 0.0884179
    outer loop
      vertex -157.438 195.117 206.627
      vertex -103.668 185.441 315.631
      vertex -157.338 195.117 206.627
    endloop
  endfacet
  facet normal -0.815018 0.579435 0
    outer loop
      vertex -275.774 150.723 149.838
      vertex -264.071 167.185 155.003
      vertex -275.774 150.723 149.738
    endloop
  endfacet
  facet normal -0.810097 -0 -0.586296
    outer loop
      vertex -229.074 102.312 36.4086
      vertex -229.074 102.212 36.4086
      vertex -250.419 135.592 65.9015
    endloop
  endfacet
  facet normal -0.943858 -0.33035 0
    outer loop
      vertex -226.656 -40.2681 310.489
      vertex -223.114 -50.3876 314.89
      vertex -226.656 -40.2681 310.589
    endloop
  endfacet
  facet normal -0.77193 0 0.635707
    outer loop
      vertex -223.114 -50.3876 314.89
      vertex -226.656 -40.1681 310.589
      vertex -226.656 -40.2681 310.589
    endloop
  endfacet
  facet normal -0.943858 -0.33035 -0
    outer loop
      vertex -223.114 -50.3876 314.89
      vertex -226.656 -40.2681 310.489
      vertex -223.114 -50.3876 314.79
    endloop
  endfacet
  facet normal 0 -1 0
    outer loop
      vertex -180.942 -124.856 274.4
      vertex -181.042 -124.856 274.5
      vertex -181.042 -124.856 274.4
    endloop
  endfacet
  facet normal -0.477331 0 0.878723
    outer loop
      vertex -223.114 -50.3876 314.89
      vertex -105.772 -70.569 378.631
      vertex -223.114 -50.2876 314.89
    endloop
  endfacet
  facet normal -0.436436 0.218218 0.872872
    outer loop
      vertex -105.772 -70.569 378.631
      vertex -226.656 -40.1681 310.589
      vertex -223.114 -50.2876 314.89
    endloop
  endfacet
  facet normal -0.135113 0 0.99083
    outer loop
      vertex 8.55932 95.6317 394.222
      vertex -105.772 -70.569 378.631
      vertex -105.772 -70.669 378.631
    endloop
  endfacet
  facet normal 0 -0.974314 0.225195
    outer loop
      vertex -124.171 -113.018 325.715
      vertex -124.271 -113.018 325.715
      vertex -181.042 -124.856 274.5
    endloop
  endfacet
  facet normal 0.814879 0 -0.579631
    outer loop
      vertex 107.92 15.2424 242.144
      vertex 55.5742 11.6191 168.554
      vertex 107.92 15.3424 242.144
    endloop
  endfacet
  facet normal 0.771069 0.296565 -0.563473
    outer loop
      vertex 55.5742 11.6191 168.554
      vertex 119.072 78.6679 290.735
      vertex 107.92 15.3424 242.144
    endloop
  endfacet
  facet normal 0.831349 -0.555751 0
    outer loop
      vertex 107.92 15.2424 242.144
      vertex 115.786 27.0096 259.202
      vertex 107.92 15.2424 242.244
    endloop
  endfacet
  facet normal 0.541275 -0.787309 0.295241
    outer loop
      vertex 115.786 27.0096 259.202
      vertex -103.535 -82.6511 368.862
      vertex 107.92 15.2424 242.244
    endloop
  endfacet
  facet normal 0.348937 0 -0.937146
    outer loop
      vertex -228.974 102.312 36.4086
      vertex -174.144 -31.3636 56.8241
      vertex -228.974 102.212 36.4086
    endloop
  endfacet
  facet normal -0.296655 0.954985 0
    outer loop
      vertex -223.956 193.467 119.278
      vertex -223.956 193.467 119.178
      vertex -225.337 193.038 118.746
    endloop
  endfacet
  facet normal 0.397432 0 -0.917632
    outer loop
      vertex -151.552 -54.7261 66.6087
      vertex -174.144 -31.3636 56.8241
      vertex -174.144 -31.2636 56.8241
    endloop
  endfacet
  facet normal 0.348937 0 -0.937146
    outer loop
      vertex -174.144 -31.3636 56.8241
      vertex -228.974 102.312 36.4086
      vertex -174.144 -31.2636 56.8241
    endloop
  endfacet
  facet normal -0.895533 -0.398015 -0.199007
    outer loop
      vertex -164.384 -63.2192 76.1644
      vertex -226.656 -40.2681 310.489
      vertex -275.774 150.623 149.738
    endloop
  endfacet
  facet normal -0.895533 -0.398015 -0.199007
    outer loop
      vertex -174.244 -31.3636 56.8241
      vertex -164.384 -63.2192 76.1644
      vertex -275.774 150.623 149.738
    endloop
  endfacet
  facet normal 0.0231496 0.671339 -0.740788
    outer loop
      vertex -223.856 193.467 119.178
      vertex -228.974 102.312 36.4086
      vertex -250.319 135.592 65.9015
    endloop
  endfacet
  facet normal 0 0.663242 -0.748405
    outer loop
      vertex -228.974 102.312 36.4086
      vertex -229.074 102.312 36.4086
      vertex -250.319 135.592 65.9015
    endloop
  endfacet
  facet normal 0.689312 0 0.724465
    outer loop
      vertex 107.382 133.225 303.604
      vertex 85.8377 146.097 324.103
      vertex 85.8377 145.997 324.103
    endloop
  endfacet
  facet normal 0.68871 0 0.725036
    outer loop
      vertex 85.8377 146.097 324.103
      vertex 52.3728 164.304 355.891
      vertex 85.8377 145.997 324.103
    endloop
  endfacet
  facet normal 0.47992 0.877312 0
    outer loop
      vertex 85.8377 146.097 324.103
      vertex 85.8377 146.097 324.003
      vertex 52.3728 164.404 355.891
    endloop
  endfacet
  facet normal 0.306147 0.91844 -0.250484
    outer loop
      vertex -223.856 193.467 119.178
      vertex -30.9577 176.687 293.413
      vertex 85.8377 146.097 324.003
    endloop
  endfacet
  facet normal 0.681202 -0.0252297 0.731661
    outer loop
      vertex 107.382 133.225 303.604
      vertex 52.3728 164.304 355.891
      vertex 22.9213 167.374 383.417
    endloop
  endfacet
  facet normal 0 0 1
    outer loop
      vertex 8.55932 95.6317 394.222
      vertex 8.65932 95.7317 394.222
      vertex 8.55932 95.7317 394.222
    endloop
  endfacet
  facet normal 0.603858 0 0.797092
    outer loop
      vertex 8.65932 95.7317 394.222
      vertex 8.65932 95.6317 394.222
      vertex 22.9213 167.374 383.417
    endloop
  endfacet
  facet normal 0.681202 -0.0252297 0.731661
    outer loop
      vertex 8.65932 95.6317 394.222
      vertex 119.072 78.5679 290.835
      vertex 22.9213 167.374 383.417
    endloop
  endfacet
  facet normal -0.358974 0.897436 0.25641
    outer loop
      vertex -139.323 175.595 300.315
      vertex -223.956 193.467 119.278
      vertex -264.071 167.185 155.103
    endloop
  endfacet
  facet normal 0 0.677014 -0.73597
    outer loop
      vertex -250.319 135.592 65.9015
      vertex -250.419 135.592 65.9015
      vertex -225.337 193.038 118.746
    endloop
  endfacet
  facet normal -0.957181 0 -0.289489
    outer loop
      vertex -275.774 150.623 149.738
      vertex -250.419 135.592 65.9015
      vertex -250.419 135.492 65.9015
    endloop
  endfacet
  facet normal -0.810097 -0 -0.586296
    outer loop
      vertex -250.419 135.592 65.9015
      vertex -229.074 102.212 36.4086
      vertex -250.419 135.492 65.9015
    endloop
  endfacet
  facet normal -0.895533 -0.398015 -0.199007
    outer loop
      vertex -223.114 -50.3876 314.79
      vertex -226.656 -40.2681 310.489
      vertex -181.042 -124.856 274.4
    endloop
  endfacet
  facet normal -0.870654 -0.491895 -0
    outer loop
      vertex -181.042 -124.856 274.5
      vertex -223.114 -50.3876 314.79
      vertex -181.042 -124.856 274.4
    endloop
  endfacet
  facet normal -0.457164 -0.609551 0.647648
    outer loop
      vertex -223.114 -50.3876 314.89
      vertex -124.271 -113.018 325.715
      vertex -103.635 -82.6511 368.862
    endloop
  endfacet
  facet normal 0 -0.817768 0.575548
    outer loop
      vertex -124.271 -113.018 325.715
      vertex -103.535 -82.6511 368.862
      vertex -103.635 -82.6511 368.862
    endloop
  endfacet
  facet normal 0.90715 0 -0.420807
    outer loop
      vertex 115.786 27.0096 259.102
      vertex 107.92 15.3424 242.144
      vertex 115.786 27.1096 259.102
    endloop
  endfacet
  facet normal 0.771069 0.296565 -0.563473
    outer loop
      vertex 107.92 15.3424 242.144
      vertex 119.072 78.6679 290.735
      vertex 115.786 27.1096 259.102
    endloop
  endfacet
  facet normal 0.40161 -0.883541 -0.240966
    outer loop
      vertex 55.5742 11.5191 168.554
      vertex -124.171 -113.018 325.615
      vertex -163.838 -62.7131 75.0519
    endloop
  endfacet
  facet normal 0.40161 -0.883541 -0.240966
    outer loop
      vertex -124.171 -113.018 325.615
      vertex -180.942 -124.856 274.4
      vertex -163.838 -62.7131 75.0519
    endloop
  endfacet
  facet normal -0.895533 -0.398015 -0.199007
    outer loop
      vertex -164.865 -61.1937 74.2793
      vertex -164.384 -63.2192 76.1644
      vertex -174.244 -31.3636 56.8241
    endloop
  endfacet
  facet normal 0 -0.151084 -0.988521
    outer loop
      vertex -229.074 102.212 36.4086
      vertex -174.144 -31.3636 56.8241
      vertex -174.244 -31.3636 56.8241
    endloop
  endfacet
  facet normal 0.509952 0.860203 0
    outer loop
      vertex 85.8377 146.097 324.103
      vertex 107.382 133.325 303.504
      vertex 85.8377 146.097 324.003
    endloop
  endfacet
  facet normal 0.306147 0.91844 -0.250484
    outer loop
      vertex 107.382 133.325 303.504
      vertex -7.53928 127.975 143.428
      vertex 85.8377 146.097 324.003
    endloop
  endfacet
  facet normal 0.144307 0.989533 -0
    outer loop
      vertex -30.9577 176.687 293.413
      vertex -157.338 195.117 206.627
      vertex -30.9577 176.687 293.513
    endloop
  endfacet
  facet normal 0.682824 0 0.730583
    outer loop
      vertex 22.9213 167.374 383.417
      vertex 52.3728 164.304 355.891
      vertex 52.3728 164.404 355.891
    endloop
  endfacet
  facet normal -0.436436 0.218218 0.872872
    outer loop
      vertex 22.8213 167.474 383.417
      vertex -105.772 -70.569 378.631
      vertex 8.55932 95.7317 394.222
    endloop
  endfacet
  facet normal -0.135113 0 0.99083
    outer loop
      vertex -105.772 -70.569 378.631
      vertex 8.55932 95.6317 394.222
      vertex 8.55932 95.7317 394.222
    endloop
  endfacet
  facet normal 0.306147 0.91844 -0.250484
    outer loop
      vertex -30.9577 176.687 293.413
      vertex -223.856 193.467 119.178
      vertex -157.338 195.117 206.527
    endloop
  endfacet
  facet normal 0 0.999822 -0.0188868
    outer loop
      vertex -223.856 193.467 119.178
      vertex -223.956 193.467 119.178
      vertex -157.338 195.117 206.527
    endloop
  endfacet
  facet normal -0.895533 -0.398015 -0.199007
    outer loop
      vertex -229.074 102.212 36.4086
      vertex -174.244 -31.3636 56.8241
      vertex -275.774 150.623 149.738
    endloop
  endfacet
  facet normal -0.968454 -0.249193 0
    outer loop
      vertex -226.656 -40.2681 310.489
      vertex -226.656 -40.2681 310.589
      vertex -275.774 150.623 149.838
    endloop
  endfacet
  facet normal 0 -0.974314 0.225195
    outer loop
      vertex -124.171 -113.018 325.715
      vertex -181.042 -124.856 274.5
      vertex -180.942 -124.856 274.5
    endloop
  endfacet
  facet normal 0 -1 0
    outer loop
      vertex -181.042 -124.856 274.5
      vertex -180.942 -124.856 274.4
      vertex -180.942 -124.856 274.5
    endloop
  endfacet
  facet normal -0.895533 -0.398015 -0.199007
    outer loop
      vertex -226.656 -40.2681 310.489
      vertex -164.384 -63.2192 76.1644
      vertex -181.042 -124.856 274.4
    endloop
  endfacet
  facet normal 0 -0.954907 -0.296904
    outer loop
      vertex -164.384 -63.2192 76.1644
      vertex -180.942 -124.856 274.4
      vertex -181.042 -124.856 274.4
    endloop
  endfacet
  facet normal 0 -0.631893 0.775056
    outer loop
      vertex -103.635 -82.6511 368.862
      vertex -105.672 -70.669 378.631
      vertex -105.772 -70.669 378.631
    endloop
  endfacet
  facet normal 0 -0.0933407 0.995634
    outer loop
      vertex -105.672 -70.669 378.631
      vertex 8.55932 95.6317 394.222
      vertex -105.772 -70.669 378.631
    endloop
  endfacet
  facet normal 0.47992 0.877312 0
    outer loop
      vertex 52.3728 164.404 355.891
      vertex 85.8377 146.097 324.003
      vertex 52.3728 164.404 355.791
    endloop
  endfacet
  facet normal 0.300385 0.928463 -0.218462
    outer loop
      vertex 85.8377 146.097 324.003
      vertex -30.9577 176.687 293.413
      vertex 52.3728 164.404 355.791
    endloop
  endfacet
  facet normal 0 1 -0
    outer loop
      vertex -157.338 195.117 206.527
      vertex -157.438 195.117 206.627
      vertex -157.338 195.117 206.627
    endloop
  endfacet
  facet normal -0.0247986 0.999692 0
    outer loop
      vertex -223.956 193.467 119.178
      vertex -157.438 195.117 206.627
      vertex -157.438 195.117 206.527
    endloop
  endfacet
  facet normal -0 0.96662 0.256213
    outer loop
      vertex -103.768 185.441 315.631
      vertex 22.8213 167.474 383.417
      vertex -103.668 185.441 315.631
    endloop
  endfacet
  facet normal 0.603858 0 0.797092
    outer loop
      vertex 8.65932 95.7317 394.222
      vertex 22.9213 167.374 383.417
      vertex 22.9213 167.474 383.417
    endloop
  endfacet
  facet normal -0.968454 -0.249193 0
    outer loop
      vertex -226.656 -40.2681 310.489
      vertex -275.774 150.623 149.838
      vertex -275.774 150.623 149.738
    endloop
  endfacet
  facet normal -1 0 0
    outer loop
      vertex -275.774 150.623 149.838
      vertex -275.774 150.723 149.838
      vertex -275.774 150.623 149.738
    endloop
  endfacet
  facet normal -0.210866 -0.542228 -0.813342
    outer loop
      vertex -164.865 -61.1937 74.2793
      vertex -174.244 -31.3636 56.8241
      vertex -151.652 -54.8261 66.6087
    endloop
  endfacet
  facet normal 0 -0.384902 -0.922958
    outer loop
      vertex -174.244 -31.3636 56.8241
      vertex -151.552 -54.8261 66.6087
      vertex -151.652 -54.8261 66.6087
    endloop
  endfacet
  facet normal 0 0.709516 -0.704689
    outer loop
      vertex -225.337 193.038 118.746
      vertex -223.856 193.467 119.178
      vertex -225.237 193.038 118.746
    endloop
  endfacet
  facet normal 0.0231496 0.671339 -0.740788
    outer loop
      vertex -223.856 193.467 119.178
      vertex -250.319 135.592 65.9015
      vertex -225.237 193.038 118.746
    endloop
  endfacet
  facet normal -0.717279 0.614811 -0.327899
    outer loop
      vertex -225.337 193.038 118.746
      vertex -250.419 135.592 65.9015
      vertex -275.774 150.723 149.738
    endloop
  endfacet
  facet normal -0.717279 0.614811 -0.327899
    outer loop
      vertex -264.071 167.185 155.003
      vertex -225.337 193.038 118.746
      vertex -275.774 150.723 149.738
    endloop
  endfacet
  facet normal 0 1 0
    outer loop
      vertex -157.438 195.117 206.627
      vertex -157.338 195.117 206.527
      vertex -157.438 195.117 206.527
    endloop
  endfacet
  facet normal 0 0.999822 -0.0188868
    outer loop
      vertex -157.338 195.117 206.527
      vertex -223.956 193.467 119.178
      vertex -157.438 195.117 206.527
    endloop
  endfacet
  facet normal 0.682824 -0 0.730583
    outer loop
      vertex 22.9213 167.374 383.417
      vertex 52.3728 164.404 355.891
      vertex 22.9213 167.474 383.417
    endloop
  endfacet
  facet normal 0.127123 0.991561 0.0254246
    outer loop
      vertex -103.668 185.441 315.631
      vertex 22.9213 167.474 383.417
      vertex -30.9577 176.687 293.513
    endloop
  endfacet
  facet normal 0 0.96662 0.256213
    outer loop
      vertex -103.668 185.441 315.631
      vertex 22.8213 167.474 383.417
      vertex 22.9213 167.474 383.417
    endloop
  endfacet
  facet normal -0 0.148923 0.988849
    outer loop
      vertex 22.8213 167.474 383.417
      vertex 8.65932 95.7317 394.222
      vertex 22.9213 167.474 383.417
    endloop
  endfacet
  facet normal -0.957181 0 -0.289489
    outer loop
      vertex -250.419 135.592 65.9015
      vertex -275.774 150.623 149.738
      vertex -275.774 150.723 149.738
    endloop
  endfacet
  facet normal -1 0 0
    outer loop
      vertex -275.774 150.623 149.738
      vertex -275.774 150.723 149.838
      vertex -275.774 150.723 149.738
    endloop
  endfacet
  facet normal -0.555146 0.831753 0
    outer loop
      vertex -225.337 193.038 118.746
      vertex -264.071 167.185 155.003
      vertex -264.071 167.185 155.103
    endloop
  endfacet
  facet normal -0.815018 0.579435 0
    outer loop
      vertex -264.071 167.185 155.003
      vertex -275.774 150.723 149.838
      vertex -264.071 167.185 155.103
    endloop
  endfacet
  facet normal 0.127123 0.991561 0.0254246
    outer loop
      vertex 22.9213 167.474 383.417
      vertex 52.3728 164.404 355.891
      vertex -30.9577 176.687 293.513
    endloop
  endfacet
  facet normal 0.145823 0.989311 0
    outer loop
      vertex 52.3728 164.404 355.891
      vertex -30.9577 176.687 293.413
      vertex -30.9577 176.687 293.513
    endloop
  endfacet
  facet normal -0.296655 0.954985 0
    outer loop
      vertex -223.956 193.467 119.278
      vertex -225.337 193.038 118.746
      vertex -225.337 193.038 118.846
    endloop
  endfacet
  facet normal -0.555146 0.831753 0
    outer loop
      vertex -225.337 193.038 118.746
      vertex -264.071 167.185 155.103
      vertex -225.337 193.038 118.846
    endloop
  endfacet
endsolid OpenSCAD_Model
