solid OpenSCAD_Model
  facet normal 0 0 1
    outer loop
      vertex -558.846 -165.498 286.044
      vertex -558.746 -165.498 286.044
      vertex -558.846 -165.398 286.044
    endloop
  endfacet
  facet normal 0.0680239 -0 0.997684
    outer loop
      vertex -499.27 -98.9259 281.989
      vertex -499.27 -98.8259 281.989
      vertex -558.746 -165.498 286.044
    endloop
  endfacet
  facet normal -0.598845 -0.800865 -0
    outer loop
      vertex -581.812 -185.987 229.666
      vertex -596.309 -175.148 270.051
      vertex -581.812 -185.987 229.566
    endloop
  endfacet
  facet normal 0.643053 -0.541518 0.541518
    outer loop
      vertex -517.396 -174.827 227.612
      vertex -558.746 -165.498 286.044
      vertex -527.095 -176.828 237.129
    endloop
  endfacet
  facet normal 0.165392 -0.986228 0
    outer loop
      vertex -581.712 -185.987 229.566
      vertex -527.095 -176.828 237.129
      vertex -581.712 -185.987 229.666
    endloop
  endfacet
  facet normal 0.290129 0.928414 -0.232104
    outer loop
      vertex -556.567 144.683 110
      vertex -706.51 159.558 -17.9313
      vertex -658.069 159.75 43.3889
    endloop
  endfacet
  facet normal 0 0 -1
    outer loop
      vertex -691.258 140.873 -73.4795
      vertex -691.158 140.773 -73.4795
      vertex -691.258 140.773 -73.4795
    endloop
  endfacet
  facet normal -0.444444 0.444444 0.777778
    outer loop
      vertex -706.271 151.992 20.4357
      vertex -556.667 144.683 110.1
      vertex -658.169 159.75 43.4889
    endloop
  endfacet
  facet normal 0.290129 0.928414 -0.232104
    outer loop
      vertex -706.51 159.558 -17.9313
      vertex -556.567 144.683 110
      vertex -691.158 140.873 -73.4795
    endloop
  endfacet
  facet normal 0.948683 2.35448e-12 -0.316228
    outer loop
      vertex -556.567 144.683 110
      vertex -499.27 -98.8259 281.889
      vertex -614.44 119.364 -63.6208
    endloop
  endfacet
  facet normal 0.973417 0.229039 0
    outer loop
      vertex -556.567 144.683 110
      vertex -499.27 -98.8259 281.989
      vertex -499.27 -98.8259 281.889
    endloop
  endfacet
  facet normal 1 0 0
    outer loop
      vertex -499.27 -98.8259 281.989
      vertex -499.27 -98.9259 281.989
      vertex -499.27 -98.8259 281.889
    endloop
  endfacet
  facet normal 0.97265 -0.232275 0
    outer loop
      vertex -499.27 -98.9259 281.989
      vertex -517.396 -174.827 227.612
      vertex -517.396 -174.827 227.512
    endloop
  endfacet
  facet normal 0.201998 -0.979386 0
    outer loop
      vertex -517.396 -174.827 227.512
      vertex -517.396 -174.827 227.612
      vertex -527.095 -176.828 237.129
    endloop
  endfacet
  facet normal -0.690075 -0.723738 -0
    outer loop
      vertex -596.309 -175.148 270.151
      vertex -705.183 -71.337 148.516
      vertex -596.309 -175.148 270.051
    endloop
  endfacet
  facet normal 0.290129 0.928414 -0.232104
    outer loop
      vertex -556.567 144.683 110
      vertex -614.44 119.364 -63.6208
      vertex -691.158 140.873 -73.4795
    endloop
  endfacet
  facet normal 0.973417 0.229039 0
    outer loop
      vertex -499.27 -98.8259 281.989
      vertex -556.567 144.683 110
      vertex -556.567 144.683 110.1
    endloop
  endfacet
  facet normal -0.711668 0.687946 0.142334
    outer loop
      vertex -706.271 151.992 20.4357
      vertex -706.61 159.558 -17.8313
      vertex -714.134 156.364 -40.0118
    endloop
  endfacet
  facet normal -0.00396822 0.999992 0
    outer loop
      vertex -706.61 159.558 -17.8313
      vertex -658.169 159.75 43.4889
      vertex -658.169 159.75 43.3889
    endloop
  endfacet
  facet normal -0.756592 0.653887 0
    outer loop
      vertex -714.134 156.364 -40.0118
      vertex -728.369 139.893 -31.6778
      vertex -728.369 139.893 -31.5778
    endloop
  endfacet
  facet normal 0 0.060801 0.99815
    outer loop
      vertex -499.27 -98.8259 281.989
      vertex -558.846 -165.398 286.044
      vertex -558.746 -165.398 286.044
    endloop
  endfacet
  facet normal 4.90636e-12 -0.416655 -0.909065
    outer loop
      vertex -691.158 140.773 -73.4795
      vertex -614.44 119.264 -63.6208
      vertex -701.572 128.028 -67.6379
    endloop
  endfacet
  facet normal -0.390773 0.920487 0
    outer loop
      vertex -714.134 156.364 -40.0118
      vertex -706.61 159.558 -17.9313
      vertex -714.134 156.364 -40.1118
    endloop
  endfacet
  facet normal 0.643053 -0.541518 0.541518
    outer loop
      vertex -517.396 -174.827 227.612
      vertex -499.27 -98.9259 281.989
      vertex -558.746 -165.498 286.044
    endloop
  endfacet
  facet normal 0.948683 0 -0.316228
    outer loop
      vertex -499.27 -98.8259 281.889
      vertex -517.396 -174.827 227.512
      vertex -517.396 -174.727 227.512
    endloop
  endfacet
  facet normal 0.97265 -0.232275 0
    outer loop
      vertex -499.27 -98.9259 281.989
      vertex -517.396 -174.827 227.512
      vertex -499.27 -98.9259 281.889
    endloop
  endfacet
  facet normal 0.127457 0 -0.991844
    outer loop
      vertex -691.158 140.773 -73.4795
      vertex -614.44 119.364 -63.6208
      vertex -614.44 119.264 -63.6208
    endloop
  endfacet
  facet normal 0.169809 -0.984892 -0.0339618
    outer loop
      vertex -517.396 -174.827 227.512
      vertex -581.712 -185.987 229.566
      vertex -579.06 -180.152 73.6114
    endloop
  endfacet
  facet normal 0 0.576683 0.816968
    outer loop
      vertex -499.27 -98.8259 281.989
      vertex -556.667 144.683 110.1
      vertex -499.37 -98.8259 281.989
    endloop
  endfacet
  facet normal -0.690075 -0.723738 0
    outer loop
      vertex -705.183 -71.337 148.516
      vertex -596.309 -175.148 270.151
      vertex -705.183 -71.337 148.616
    endloop
  endfacet
  facet normal -0 0.97536 0.220617
    outer loop
      vertex -556.667 144.683 110.1
      vertex -556.567 144.683 110.1
      vertex -658.169 159.75 43.4889
    endloop
  endfacet
  facet normal -0 0.576683 0.816968
    outer loop
      vertex -556.667 144.683 110.1
      vertex -499.27 -98.8259 281.989
      vertex -556.567 144.683 110.1
    endloop
  endfacet
  facet normal 0 0.989791 -0.14253
    outer loop
      vertex -706.51 159.558 -17.9313
      vertex -714.034 156.364 -40.1118
      vertex -706.61 159.558 -17.9313
    endloop
  endfacet
  facet normal -0.244497 0.95082 0.190164
    outer loop
      vertex -706.271 151.992 20.4357
      vertex -658.169 159.75 43.4889
      vertex -706.61 159.558 -17.8313
    endloop
  endfacet
  facet normal 0.127457 0 -0.991844
    outer loop
      vertex -614.44 119.364 -63.6208
      vertex -691.158 140.773 -73.4795
      vertex -691.158 140.873 -73.4795
    endloop
  endfacet
  facet normal 0 0 -1
    outer loop
      vertex -691.158 140.773 -73.4795
      vertex -691.258 140.873 -73.4795
      vertex -691.158 140.873 -73.4795
    endloop
  endfacet
  facet normal -0.598845 -0.800865 0
    outer loop
      vertex -581.812 -185.987 229.666
      vertex -596.309 -175.148 270.151
      vertex -596.309 -175.148 270.051
    endloop
  endfacet
  facet normal 0 -0.854788 0.518978
    outer loop
      vertex -558.746 -165.498 286.044
      vertex -558.846 -165.498 286.044
      vertex -596.309 -175.148 270.151
    endloop
  endfacet
  facet normal 0.11847 -0.947758 0.296174
    outer loop
      vertex -527.095 -176.828 237.129
      vertex -558.746 -165.498 286.044
      vertex -596.209 -175.148 270.151
    endloop
  endfacet
  facet normal 0.201998 -0.979386 0
    outer loop
      vertex -517.396 -174.827 227.512
      vertex -527.095 -176.828 237.129
      vertex -527.095 -176.828 237.029
    endloop
  endfacet
  facet normal 0.948683 0 -0.316228
    outer loop
      vertex -614.44 119.364 -63.6208
      vertex -517.396 -174.827 227.512
      vertex -614.44 119.264 -63.6208
    endloop
  endfacet
  facet normal 0.948683 -4.69287e-13 -0.316228
    outer loop
      vertex -517.396 -174.827 227.512
      vertex -568.966 -178.384 72.8009
      vertex -614.44 119.264 -63.6208
    endloop
  endfacet
  facet normal 0.948683 0 -0.316228
    outer loop
      vertex -517.396 -174.827 227.512
      vertex -614.44 119.364 -63.6208
      vertex -517.396 -174.727 227.512
    endloop
  endfacet
  facet normal 0.948683 9.02483e-13 -0.316228
    outer loop
      vertex -614.44 119.364 -63.6208
      vertex -499.27 -98.8259 281.889
      vertex -517.396 -174.727 227.512
    endloop
  endfacet
  facet normal 0.948683 0 -0.316228
    outer loop
      vertex -517.396 -174.827 227.512
      vertex -499.27 -98.8259 281.889
      vertex -499.27 -98.9259 281.889
    endloop
  endfacet
  facet normal 1 0 0
    outer loop
      vertex -499.27 -98.8259 281.889
      vertex -499.27 -98.9259 281.989
      vertex -499.27 -98.9259 281.889
    endloop
  endfacet
  facet normal -0 0 1
    outer loop
      vertex -558.846 -165.398 286.044
      vertex -558.746 -165.498 286.044
      vertex -558.746 -165.398 286.044
    endloop
  endfacet
  facet normal 0.0680239 -0 0.997684
    outer loop
      vertex -558.746 -165.498 286.044
      vertex -499.27 -98.8259 281.989
      vertex -558.746 -165.398 286.044
    endloop
  endfacet
  facet normal -0.444444 0.444444 0.777778
    outer loop
      vertex -558.846 -165.398 286.044
      vertex -499.37 -98.8259 281.989
      vertex -738.817 118.173 21.1629
    endloop
  endfacet
  facet normal 0 0.060801 0.99815
    outer loop
      vertex -558.846 -165.398 286.044
      vertex -499.27 -98.8259 281.989
      vertex -499.37 -98.8259 281.989
    endloop
  endfacet
  facet normal 0.146829 0.989162 0
    outer loop
      vertex -556.567 144.683 110.1
      vertex -658.069 159.75 43.3889
      vertex -658.069 159.75 43.4889
    endloop
  endfacet
  facet normal 0.146829 0.989162 0
    outer loop
      vertex -556.567 144.683 110.1
      vertex -556.567 144.683 110
      vertex -658.069 159.75 43.3889
    endloop
  endfacet
  facet normal 0.290129 0.928414 -0.232104
    outer loop
      vertex -706.51 159.558 -17.9313
      vertex -691.158 140.873 -73.4795
      vertex -714.034 156.364 -40.1118
    endloop
  endfacet
  facet normal 0 0.907026 -0.421075
    outer loop
      vertex -691.158 140.873 -73.4795
      vertex -691.258 140.873 -73.4795
      vertex -714.034 156.364 -40.1118
    endloop
  endfacet
  facet normal 0.169809 -0.984892 -0.0339618
    outer loop
      vertex -568.966 -178.384 72.8009
      vertex -517.396 -174.827 227.512
      vertex -579.06 -180.152 73.6114
    endloop
  endfacet
  facet normal -0.390773 0.920487 0
    outer loop
      vertex -706.61 159.558 -17.8313
      vertex -706.61 159.558 -17.9313
      vertex -714.134 156.364 -40.0118
    endloop
  endfacet
  facet normal -0.9669 0 0.255154
    outer loop
      vertex -705.183 -71.237 148.616
      vertex -738.817 118.173 21.1629
      vertex -705.183 -71.337 148.616
    endloop
  endfacet
  facet normal -0.897085 -0.345033 -0.276026
    outer loop
      vertex -657.86 -107.996 40.5397
      vertex -705.183 -71.337 148.516
      vertex -698.735 59.8055 -36.3692
    endloop
  endfacet
  facet normal -0.39055 0 0.920582
    outer loop
      vertex -558.846 -165.498 286.044
      vertex -558.846 -165.398 286.044
      vertex -596.309 -175.148 270.151
    endloop
  endfacet
  facet normal -0.444444 0.444444 0.777778
    outer loop
      vertex -558.846 -165.398 286.044
      vertex -738.817 118.173 21.1629
      vertex -596.309 -175.048 270.151
    endloop
  endfacet
  facet normal 0 -1 0
    outer loop
      vertex -581.812 -185.987 229.666
      vertex -581.712 -185.987 229.566
      vertex -581.712 -185.987 229.666
    endloop
  endfacet
  facet normal -0.666283 -0.744669 -0.0391931
    outer loop
      vertex -596.309 -175.148 270.051
      vertex -705.183 -71.337 148.516
      vertex -581.812 -185.987 229.566
    endloop
  endfacet
  facet normal 0 1 0
    outer loop
      vertex -658.169 159.75 43.4889
      vertex -658.069 159.75 43.3889
      vertex -658.169 159.75 43.3889
    endloop
  endfacet
  facet normal 0 0.999995 -0.00313478
    outer loop
      vertex -658.069 159.75 43.3889
      vertex -706.51 159.558 -17.9313
      vertex -658.169 159.75 43.3889
    endloop
  endfacet
  facet normal 0 1 -0
    outer loop
      vertex -658.069 159.75 43.3889
      vertex -658.169 159.75 43.4889
      vertex -658.069 159.75 43.4889
    endloop
  endfacet
  facet normal -0 0.97536 0.220617
    outer loop
      vertex -658.169 159.75 43.4889
      vertex -556.567 144.683 110.1
      vertex -658.069 159.75 43.4889
    endloop
  endfacet
  facet normal -0.444444 0.444444 0.777778
    outer loop
      vertex -499.37 -98.8259 281.989
      vertex -556.667 144.683 110.1
      vertex -738.817 118.173 21.1629
    endloop
  endfacet
  facet normal -0.444444 0.444444 0.777778
    outer loop
      vertex -556.667 144.683 110.1
      vertex -706.271 151.992 20.4357
      vertex -738.817 118.173 21.1629
    endloop
  endfacet
  facet normal -0.489231 0 -0.872154
    outer loop
      vertex -691.258 140.873 -73.4795
      vertex -701.672 128.028 -67.6379
      vertex -701.672 128.128 -67.6379
    endloop
  endfacet
  facet normal 3.38959e-12 -0.416655 -0.909065
    outer loop
      vertex -614.44 119.264 -63.6208
      vertex -579.06 -180.152 73.6114
      vertex -701.572 128.028 -67.6379
    endloop
  endfacet
  facet normal -0.666283 -0.744669 -0.0391931
    outer loop
      vertex -705.183 -71.337 148.516
      vertex -657.86 -107.996 40.5397
      vertex -579.16 -180.152 73.6114
    endloop
  endfacet
  facet normal 1.6686e-11 -0.416655 -0.909065
    outer loop
      vertex -614.44 119.264 -63.6208
      vertex -568.966 -178.384 72.8009
      vertex -579.06 -180.152 73.6114
    endloop
  endfacet
  facet normal 0 -0.416655 -0.909065
    outer loop
      vertex -701.672 128.028 -67.6379
      vertex -579.06 -180.152 73.6114
      vertex -579.16 -180.152 73.6114
    endloop
  endfacet
  facet normal -5.28351e-13 -0.416655 -0.909065
    outer loop
      vertex -657.86 -107.996 40.5397
      vertex -701.672 128.028 -67.6379
      vertex -579.16 -180.152 73.6114
    endloop
  endfacet
  facet normal 0 -0.854788 0.518978
    outer loop
      vertex -558.746 -165.498 286.044
      vertex -596.309 -175.148 270.151
      vertex -596.209 -175.148 270.151
    endloop
  endfacet
  facet normal 0 -0.965976 0.258632
    outer loop
      vertex -596.309 -175.148 270.151
      vertex -581.812 -185.987 229.666
      vertex -596.209 -175.148 270.151
    endloop
  endfacet
  facet normal 0.165392 -0.986228 0
    outer loop
      vertex -527.095 -176.828 237.129
      vertex -581.712 -185.987 229.566
      vertex -527.095 -176.828 237.029
    endloop
  endfacet
  facet normal 0.169809 -0.984892 -0.0339618
    outer loop
      vertex -581.712 -185.987 229.566
      vertex -517.396 -174.827 227.512
      vertex -527.095 -176.828 237.029
    endloop
  endfacet
  facet normal 0.11847 -0.947758 0.296174
    outer loop
      vertex -527.095 -176.828 237.129
      vertex -596.209 -175.148 270.151
      vertex -581.712 -185.987 229.666
    endloop
  endfacet
  facet normal 0 -0.965976 0.258632
    outer loop
      vertex -596.209 -175.148 270.151
      vertex -581.812 -185.987 229.666
      vertex -581.712 -185.987 229.666
    endloop
  endfacet
  facet normal -0.00396822 0.999992 0
    outer loop
      vertex -706.61 159.558 -17.8313
      vertex -658.169 159.75 43.3889
      vertex -706.61 159.558 -17.9313
    endloop
  endfacet
  facet normal 0 0.999995 -0.00313478
    outer loop
      vertex -658.169 159.75 43.3889
      vertex -706.51 159.558 -17.9313
      vertex -706.61 159.558 -17.9313
    endloop
  endfacet
  facet normal -7.64236e-12 -0.416655 -0.909065
    outer loop
      vertex -657.86 -107.996 40.5397
      vertex -698.735 59.8055 -36.3692
      vertex -701.672 128.028 -67.6379
    endloop
  endfacet
  facet normal -0.711668 0.687946 0.142334
    outer loop
      vertex -738.817 118.173 21.1629
      vertex -706.271 151.992 20.4357
      vertex -714.134 156.364 -40.0118
    endloop
  endfacet
  facet normal -0.744835 0 0.667248
    outer loop
      vertex -596.309 -175.148 270.151
      vertex -705.183 -71.237 148.616
      vertex -705.183 -71.337 148.616
    endloop
  endfacet
  facet normal -0.444444 0.444444 0.777778
    outer loop
      vertex -738.817 118.173 21.1629
      vertex -705.183 -71.237 148.616
      vertex -596.309 -175.048 270.151
    endloop
  endfacet
  facet normal -0.711668 0.687946 0.142334
    outer loop
      vertex -738.817 118.173 21.1629
      vertex -714.134 156.364 -40.0118
      vertex -731.382 135.291 -24.3975
    endloop
  endfacet
  facet normal -0.81319 -0.271063 -0.515021
    outer loop
      vertex -701.672 128.028 -67.6379
      vertex -731.382 135.191 -24.4975
      vertex -728.369 139.793 -31.6778
    endloop
  endfacet
  facet normal -0.81319 -0.271063 -0.515021
    outer loop
      vertex -701.672 128.028 -67.6379
      vertex -698.735 59.8055 -36.3692
      vertex -731.382 135.191 -24.4975
    endloop
  endfacet
  facet normal -0.897085 -0.345033 -0.276026
    outer loop
      vertex -698.735 59.8055 -36.3692
      vertex -705.183 -71.337 148.516
      vertex -738.817 118.073 21.0629
    endloop
  endfacet
  facet normal -0 -0.999301 -0.0373888
    outer loop
      vertex -579.06 -180.152 73.6114
      vertex -581.712 -185.987 229.566
      vertex -579.16 -180.152 73.6114
    endloop
  endfacet
  facet normal -0.666283 -0.744669 -0.0391931
    outer loop
      vertex -705.183 -71.337 148.516
      vertex -579.16 -180.152 73.6114
      vertex -581.812 -185.987 229.566
    endloop
  endfacet
  facet normal 0 0.989791 -0.14253
    outer loop
      vertex -706.61 159.558 -17.9313
      vertex -714.034 156.364 -40.1118
      vertex -714.134 156.364 -40.1118
    endloop
  endfacet
  facet normal 0 0.907026 -0.421075
    outer loop
      vertex -714.034 156.364 -40.1118
      vertex -691.258 140.873 -73.4795
      vertex -714.134 156.364 -40.1118
    endloop
  endfacet
  facet normal -0.744835 0 0.667248
    outer loop
      vertex -705.183 -71.237 148.616
      vertex -596.309 -175.148 270.151
      vertex -596.309 -175.048 270.151
    endloop
  endfacet
  facet normal -0.39055 0 0.920582
    outer loop
      vertex -596.309 -175.148 270.151
      vertex -558.846 -165.398 286.044
      vertex -596.309 -175.048 270.151
    endloop
  endfacet
  facet normal -1 -0 0
    outer loop
      vertex -738.817 118.173 21.1629
      vertex -738.817 118.073 21.0629
      vertex -738.817 118.073 21.1629
    endloop
  endfacet
  facet normal -0.984598 -0.174835 0
    outer loop
      vertex -738.817 118.073 21.0629
      vertex -705.183 -71.337 148.516
      vertex -705.183 -71.337 148.616
    endloop
  endfacet
  facet normal -0 -0.416655 -0.909065
    outer loop
      vertex -691.158 140.773 -73.4795
      vertex -701.672 128.028 -67.6379
      vertex -691.258 140.773 -73.4795
    endloop
  endfacet
  facet normal -0.489231 0 -0.872154
    outer loop
      vertex -701.672 128.028 -67.6379
      vertex -691.258 140.873 -73.4795
      vertex -691.258 140.773 -73.4795
    endloop
  endfacet
  facet normal 0 -0.416655 -0.909065
    outer loop
      vertex -579.06 -180.152 73.6114
      vertex -701.672 128.028 -67.6379
      vertex -701.572 128.028 -67.6379
    endloop
  endfacet
  facet normal 0 -0.416655 -0.909065
    outer loop
      vertex -701.672 128.028 -67.6379
      vertex -691.158 140.773 -73.4795
      vertex -701.572 128.028 -67.6379
    endloop
  endfacet
  facet normal 0 -0.999301 -0.0373888
    outer loop
      vertex -579.16 -180.152 73.6114
      vertex -581.712 -185.987 229.566
      vertex -581.812 -185.987 229.566
    endloop
  endfacet
  facet normal 0 -1 0
    outer loop
      vertex -581.712 -185.987 229.566
      vertex -581.812 -185.987 229.666
      vertex -581.812 -185.987 229.566
    endloop
  endfacet
  facet normal -0.756592 0.653887 0
    outer loop
      vertex -714.134 156.364 -40.0118
      vertex -714.134 156.364 -40.1118
      vertex -728.369 139.893 -31.6778
    endloop
  endfacet
  facet normal -0.802923 0 -0.596083
    outer loop
      vertex -701.672 128.028 -67.6379
      vertex -728.369 139.893 -31.6778
      vertex -701.672 128.128 -67.6379
    endloop
  endfacet
  facet normal -0.984598 -0.174835 0
    outer loop
      vertex -738.817 118.073 21.0629
      vertex -705.183 -71.337 148.616
      vertex -738.817 118.073 21.1629
    endloop
  endfacet
  facet normal -0.9669 0 0.255154
    outer loop
      vertex -705.183 -71.337 148.616
      vertex -738.817 118.173 21.1629
      vertex -738.817 118.073 21.1629
    endloop
  endfacet
  facet normal -0.717424 0.297468 -0.629933
    outer loop
      vertex -728.369 139.893 -31.6778
      vertex -714.134 156.364 -40.1118
      vertex -701.672 128.128 -67.6379
    endloop
  endfacet
  facet normal -0.717424 0.297468 -0.629933
    outer loop
      vertex -714.134 156.364 -40.1118
      vertex -691.258 140.873 -73.4795
      vertex -701.672 128.128 -67.6379
    endloop
  endfacet
  facet normal -0.897085 -0.345033 -0.276026
    outer loop
      vertex -698.735 59.8055 -36.3692
      vertex -738.817 118.073 21.0629
      vertex -731.382 135.191 -24.4975
    endloop
  endfacet
  facet normal -0.922095 0 -0.386964
    outer loop
      vertex -728.369 139.893 -31.6778
      vertex -731.382 135.191 -24.4975
      vertex -731.382 135.291 -24.4975
    endloop
  endfacet
  facet normal -0.836655 0.54773 0
    outer loop
      vertex -728.369 139.893 -31.5778
      vertex -728.369 139.893 -31.6778
      vertex -731.382 135.291 -24.3975
    endloop
  endfacet
  facet normal -0.711668 0.687946 0.142334
    outer loop
      vertex -714.134 156.364 -40.0118
      vertex -728.369 139.893 -31.5778
      vertex -731.382 135.291 -24.3975
    endloop
  endfacet
  facet normal -0.922095 0 -0.386964
    outer loop
      vertex -731.382 135.191 -24.4975
      vertex -728.369 139.893 -31.6778
      vertex -728.369 139.793 -31.6778
    endloop
  endfacet
  facet normal -0.802923 -0 -0.596083
    outer loop
      vertex -728.369 139.893 -31.6778
      vertex -701.672 128.028 -67.6379
      vertex -728.369 139.793 -31.6778
    endloop
  endfacet
  facet normal -0.986945 0 -0.161057
    outer loop
      vertex -731.382 135.191 -24.4975
      vertex -738.817 118.073 21.0629
      vertex -738.817 118.173 21.0629
    endloop
  endfacet
  facet normal -1 0 0
    outer loop
      vertex -738.817 118.073 21.0629
      vertex -738.817 118.173 21.1629
      vertex -738.817 118.173 21.0629
    endloop
  endfacet
  facet normal -0.986945 0 -0.161057
    outer loop
      vertex -731.382 135.191 -24.4975
      vertex -738.817 118.173 21.0629
      vertex -731.382 135.291 -24.4975
    endloop
  endfacet
  facet normal -0.917217 0.398387 0
    outer loop
      vertex -738.817 118.173 21.0629
      vertex -738.817 118.173 21.1629
      vertex -731.382 135.291 -24.3975
    endloop
  endfacet
  facet normal -0.917217 0.398387 0
    outer loop
      vertex -738.817 118.173 21.0629
      vertex -731.382 135.291 -24.3975
      vertex -731.382 135.291 -24.4975
    endloop
  endfacet
  facet normal -0.836655 0.54773 0
    outer loop
      vertex -731.382 135.291 -24.3975
      vertex -728.369 139.893 -31.6778
      vertex -731.382 135.291 -24.4975
    endloop
  endfacet
endsolid OpenSCAD_Model
